<svg id="dataviz-bg-graphic" xmlns="http://www.w3.org/2000/svg" xmlns:xlink="http://www.w3.org/1999/xlink" width="975" height="448.054" viewBox="0 0 975 448.054">
  <defs>
    <clipPath id="clip-path">
      <rect id="Rectangle_3161" data-name="Rectangle 3161" width="975" height="448.055" fill="#dbe3ed"/>
    </clipPath>
  </defs>
  <g id="Group_13514" data-name="Group 13514" clip-path="url(#clip-path)">
    <path id="Path_37334" data-name="Path 37334" d="M2297.817,0s3.525,11.829,10.11,31.762v-7.1Q2302.864,12.538,2297.817,0" transform="translate(-1332.927)" fill="#dbe3ed"/>
    <path id="Path_37335" data-name="Path 37335" d="M2259.39,90.709c-9.942-20.092-20.039-41.239-30.1-63.4,0,0,14.363,41.47,38.884,99.613v-21.75q-8.992-22.292-17.94-46.275s3.167,11.916,9.152,31.808" transform="translate(-1293.178 -15.844)" fill="#dbe3ed"/>
    <path id="Path_37336" data-name="Path 37336" d="M2167.96,101.419s5,23.9,14.625,60.86c-9.31-17.866-18.757-36.641-28.172-56.285,0,0,13.938,38.057,37.677,91.369q2.313,8.219,4.84,16.886c-18.759-35.4-38.963-75.377-58.882-119.455a1792.924,1792.924,0,0,0,77.2,185.485V222.65q-7.673-13.719-15.667-28.427c-10.5-28.563-21.261-59.589-31.619-92.8" transform="translate(-1240.247 -54.988)" fill="#dbe3ed"/>
    <path id="Path_37337" data-name="Path 37337" d="M559.766,526.665l-.351-3.434s-3-8.154-10.147-33.149c-8.115-28.393-41.583-91.157-71.541-177.129,0,0,22.269,91.3,59.955,172.318,7.621,16.382,12.173,27.466,22.083,41.395" transform="translate(-277.122 -181.538)" fill="#dbe3ed"/>
    <path id="Path_37338" data-name="Path 37338" d="M958.628,237.56s-2.071,6.556-5.229,17.762l-1.324-2.372q.329-6.19.741-12.529s-.642,3.952-1.617,10.957l-.288-.518q.846-9.868,1.913-20.114s-1.335,6.509-3.272,17.672c-23.139-41.6-50.085-91.694-76.652-149.113a1746.518,1746.518,0,0,0,73.01,171.6q-.333,2.2-.67,4.5c-6.043-12.527-12.479-25.935-19.182-40.183.054-.707.107-1.411.163-2.121,0,0-.11.623-.31,1.81q-1.521-3.232-3.058-6.521c0-.024.007-.047.01-.071l-.015.061c-17.572-37.586-36.8-80.743-55.476-128.7,0,0,13.064,46.2,36.095,108.894-16.889-29.537-34.844-62.248-52.878-97.87,0,0,21.122,52.682,54.778,120.593-.409,2.345-.893,5.189-1.432,8.478q-1.356-2.574-2.727-5.188.474-4.352.993-8.775s-.585,2.748-1.547,7.716c-9.461-18.053-19.385-37.432-29.512-58.067q-7.886-22.965-15.666-47.752s2.367,11.109,6.941,29.755q-11.735-24.508-23.567-51.132s12.057,36.269,33.015,87.855q2.2,8.2,4.692,17.12c-13.429-28.12-27.453-58.906-41.3-92.114,0,0,15.813,50.675,42.638,117.2-1.13,7.515-3.082,21.372-4.979,39.026q-2.116-3.8-4.271-7.7c.422-13.194,1.092-27.148,2.141-41.74,0,0-2.388,14.391-4.937,36.669q-4.166-7.572-8.452-15.479.257-10.906.771-22.372s-1.016,7.293-2.31,19.524c-15.747-29.168-32.541-61.7-49.247-97.289,0,0,18.031,49.975,47.592,114.362q-.311,3.52-.618,7.294c-8.593-15.556-17.6-32.2-26.813-49.874-.014-.3-.03-.6-.044-.9,0,0-.012.259-.032.755-10.732-20.588-21.747-42.569-32.727-65.866,0,0,11.952,32.968,32.34,79.836-.124,6.784-.207,15.635-.122,25.964q-.927-1.606-1.857-3.225-.545-11.517-.81-23.766s-.587,7.738-1.072,20.486q-8.867-15.491-18.085-32.222-.443-4.423-.854-8.932s-.005,2.683.073,7.513c-9.805-17.872-19.818-36.774-29.829-56.655,0,0,11.135,28.384,30.151,69.774.528,16.515,1.76,41.459,4.631,69.3q-6.4-8.221-13.077-16.925-1.479-6.228-2.97-12.8c-1.568-18.055-2.926-38.129-3.509-59.772,0,0-1.026,14.807-1.327,37.3q-2.577-12.662-4.957-26.273s1.3,17.1,4.761,42.243c-3.2-16.833-6.334-35.269-8.967-55.037,0,0,.84,24.355,4.636,58.128q-8.374-11.1-17.063-22.91c-2.06-10.48-4.055-21.495-5.886-32.989,0,0,.686,11.058,2.576,28.474q-9.432-12.9-19.131-26.608-.572-5.23-1.1-10.6s.013,3.366.17,9.291q-1.435-2.034-2.874-4.085-.872-5.612-1.7-11.383s.162,3.555.594,9.811q-1.272-1.817-2.546-3.646-.152-7.242-.186-14.759s-.43,4.838-.935,13.147q-4.115-5.921-8.258-11.978s2.87,5.073,8.139,13.984c-.007.132-.016.267-.023.4q-7.147-11.04-14.365-22.564s5.059,10.049,14.132,26.782c-.145,2.762-.289,5.767-.425,8.988q-1.8-3.017-3.6-6.066s1.224,2.622,3.542,7.4c-.406,9.96-.723,21.863-.739,34.882-3.359-16.759-6.742-35.42-9.6-55.632,0,0,1.031,21.581,4.646,51.612q-1.109-2.686-2.224-5.427c-1.792-16.971-3.431-35.83-4.4-56.178,0,0-.812,18.1-.315,44.369q-2.961-7.543-5.915-15.443s2.114,7.641,6.014,20.08c.117,4.877.281,10,.5,15.307q-7.119-9.558-14.39-19.574c-2.19-16.686-4.271-35.188-5.747-55.146,0,0-.378,20.1,1.041,48.632q-2.358-3.28-4.728-6.613-.634-8.69-1.164-17.982.238-10.824.807-22.375s-.578,3.914-1.392,10.695q-.464-10.533-.695-21.691s-1.242,16.964-1.545,41.917q-2.393-10.244-4.695-21.153s1.091,8.874,3.371,23.092q-5.213-7.4-10.466-15.03-2-10.364-3.867-21.382s2.68,36.264,10.684,80.045q-5.913-9.261-11.9-18.921c-3.335-19.247-6.87-41.816-9.4-66.876,0,0,.1,22.348,2.713,52.8-1.178-9.036-2.346-18.706-3.4-28.932-.023-12.042.18-24.913.778-38.461,0,0-1.126,7.976-2.417,20.948q-.717-8.59-1.278-17.6s-.478,13.07-.1,33.019c-1.136,14.217-2.136,31.507-2.343,49.825q-5.274-6.775-10.6-13.764c-3.5-21.228-7.507-47.247-10.074-76.683,0,0-.571,62.691,10.513,121.26,2.066,10.916,3.19,18.5,6.583,27.943q-4.135-2.873-8.176-5.74c-.1-.725-.867-6.785-2.008-22.947-.615-8.715-3.374-22.507-6.9-40.406-2.446-23.546-5.833-54.88-6.741-91.217,0,0-1.413,19.922-1.31,47.93q-1.825-10.786-3.552-22.533c-.585-10.647-1.02-21.91-1.189-33.7,0,0-.533,6.549-1.025,17.411q-.172-1.365-.341-2.74s.065,1.843.234,5.188c-.976,23.2-1.612,63.362,2.824,102.18,1.331,11.643,1.895,19.524,4.96,29.971q-3.876-2.848-7.664-5.682c0-.431-.015-6.3,1-22.58,1.195-19.245-5.38-65.041-4.96-124.441,0,0-6.111,61.081-.9,119.04.945,10.5,1.334,17.865,3.514,26.969q-3.157-2.371-6.252-4.73l.172-.761s-.1-5.371.739-21.438c.958-18.251-5.687-61.6-5.826-117.9,0,0-5.241,57.948.226,112.835,1.033,10.369,1.457,17.5,3.854,26.631q-3.386-2.586-6.687-5.154c-.11-2.095-.355-8.115-.385-20.552-.045-18.276-9.058-61.193-12.285-117.4,0,0-2.054,58.149,6.416,112.653,1.456,9.372,2.267,16.1,4.582,24q-3.463-2.7-6.835-5.375l.092-.551s-.407-5.356-.471-21.446c-.073-18.276-9.152-61.179-12.466-117.386,0,0-1.964,58.152,6.589,112.643,1.587,10.113,2.417,17.148,5.2,25.906l-.67-.535q-1.73-1.946-3.465-3.908s.7.961,2.03,2.763q-2.388-1.908-4.734-3.8l.21-1.492s-.546-5.345-1.029-21.427c-.212-7.08-1.874-17.826-4.107-31.6-.6-22.182-1.816-53.037-.312-89.291,0,0-3.1,24.43-4.539,56.547.236-18.072.844-39.215,2.755-62.487,0,0-3.129,17.742-5.764,42.978-1.327-10.41-2.556-21.5-3.549-33.172,0,0-.166,21.5,1.942,50.54-1.306,16.258-2.183,34.293-1.918,52.106.144,9.679,0,16.534,1.277,24.913q-3.325-2.79-6.545-5.54c0-.033.1-4.882,1.445-19.232,1.537-16.357-3.11-55.669-1.247-106.291,0,0-6.922,51.821-3.781,101.446.568,8.969.727,15.253,2.408,23.075q-2.385-2.04-4.706-4.054l.253-1.3s-.271-5.365.073-21.451c.392-18.272-7.6-61.391-9.481-117.664,0,0-3.44,58.084,3.726,112.774,1.387,10.585,2.035,17.8,4.884,27.174q-3.4-2.95-6.678-5.843l.028-.235s-.656-4.94-1.515-19.819c-.665-11.517-5.906-33.459-11.064-62.679-.675-16.58-1.141-35.925-.5-57.228,0,0-1.825,14.383-3.081,35.349-1.125-7.518-2.187-15.385-3.127-23.565,0,0,.236,12.7,1.727,31.5-1.805-13.461-3.5-28.3-4.707-44.254a657.173,657.173,0,0,0,5.205,89.9c.168,5.145.422,10.322.784,15.477.634,9.03.84,15.41,2.525,23.21q-2.248-2.058-4.423-4.075l.115-.867s-.588-4.942-1.243-19.818c-.744-16.9-11.04-56.317-16.294-108.2,0,0,.261,53.828,10.479,103.977,1.918,9.412,2.974,15.932,6.049,24.079q-3.679-3.419-7.147-6.712c-.437-2.042-1.54-7.527-3.338-18.594C529.12,164.615,514.285,126.556,503,75.552c0,0,6.558,53.489,22.572,102.224,2.545,7.746,4.237,13.5,7.127,19.792q-2.394-2.287-4.687-4.508l-.028-.317s-1.544-4.72-5.2-19.15c-4.156-16.392-21.429-52.914-36.818-102.647,0,0,4.356,20.161,12.279,46.677-5.676-16.149-12.065-35.267-17.926-56.767,0,0,9.15,53.148,27.513,101.117,2.816,7.357,4.745,12.895,7.745,18.806q-1.729-1.741-3.38-3.423c-.651-1.38-2.632-5.7-6.473-15.072-3.378-8.238-12.036-22.314-22.657-41.3-6.861-14.946-15.475-33.942-23.874-56.221,0,0,3.4,12,9.306,28.994q-3.393-6.688-6.823-13.871s5.411,14.757,14.389,34.488c4.208,10.859,9.075,22.447,14.459,33.6,2.679,5.553,4.623,9.846,7.181,14.223q-1.9-2.042-3.616-3.918l-.09-.338s-2.053-3.723-7.384-15.288c-6.056-13.136-26.688-41.048-47.538-80.433,0,0,17.689,42.52,41.748,78.949,2.258,3.419,4.117,6.331,6.033,9.074-3.465-3.924-5.947-6.852-7.419-8.618l-.51-1.31s-2.446-3.478-9.006-14.393c-7.451-12.4-31-37.9-56.018-74.775,0,0,22.216,40.34,50.1,73.93,2.712,3.267,4.939,6.04,7.227,8.638a20.351,20.351,0,0,0,2.289,4.367c-1.214-1.343-2.635-2.934-4.287-4.806-8.6-9.75-33.8-28.372-62-56.877,0,0,26.145,32.074,56.476,57.152,5.929,4.9,9.787,8.379,15.982,11.914q1.11,1.23,2.222,2.451c-2.05-1.183-6.04-3.552-12.765-7.78-12.246-7.7-44.77-19.821-83.74-41.436,0,0,38.033,25.968,78.079,43.353,7.616,3.306,12.729,5.775,20.041,7.643q3.624,3.971,7.264,7.874c-2.111-1.179-5.624-3.2-11-6.429-10.462-6.293-36.758-15.56-69-31.722q-2.422-1.366-4.879-2.784s.556.4,1.6,1.127q-3.125-1.593-6.317-3.272s6.151,4.035,16.033,9.842c13.7,9.023,38.123,24.2,63.618,35.641,7.357,3.3,12.283,5.769,19.415,7.632q4.726,4.943,9.472,9.784c-1.382-.441-5.563-1.831-14.251-5.125-1.085-.411-2.318-.823-3.685-1.24-15.279-6.46-39.205-15.457-66.527-29.215,0,0,18.03,11.368,41.966,23.158-15.038-3.466-34.158-7.965-55.479-14.685,0,0,37.789,16.042,76.672,24.433,3.531,1.5,7.106,2.953,10.7,4.331,6.989,2.682,11.754,4.728,18.337,6.139.427.426.852.855,1.279,1.28.029.047.054.092.083.139l0-.058q3.069,3.054,6.146,6.059c-2.284-.638-6.575-1.9-13.7-4.179-13.413-4.3-47.212-7.665-89.264-18.548,0,0,42.109,15.325,84.263,21.849,7.739,1.2,13.078,2.237,20.1,2.244q4.342,4.234,8.7,8.383c-.071-.021-4.006-1.174-15.351-5.327-11.68-4.276-39.226-8.9-74.228-18.894q-2.8-.936-5.66-1.924s.631.288,1.815.812q-4.118-1.2-8.357-2.509s7.987,3.25,20.419,7.617c15.254,6.225,41.082,15.961,67.219,22.181,7.765,1.848,13.017,3.33,20.282,3.852q2.906,2.724,5.815,5.407c-8.109-2.248-14.613-2.758-23.938-3.854-5.632-.662-11.3-1.2-16.924-1.628a659.36,659.36,0,0,0-86.885-8.942q8.912,1.1,17.336,2.356c9.364,1.576,18.292,3.284,26.724,5.032-25.891-.021-44.7,1.474-44.7,1.474,27.843.469,52.259,2.67,71.541,4.516,22.986,5.446,40.32,10.2,50.156,11.232,14.823,1.557,19.726,2.444,19.726,2.444l.822-.059q2.5,2.231,5.008,4.435c-8.164-2.671-14.989-3.639-24.608-5.362C486.982,215.493,428.8,216.2,428.8,216.2c56.122,4.525,98.819,14.528,117.089,15,16.084.411,21.431.933,21.431.933l.278-.04q2.377,2.082,4.754,4.141c-7.745-2.052-14.018-2.505-22.959-3.495-37.943-4.2-77.454-2.532-93.763-1.531h0c-4.935.3-7.748.545-7.748.545q4.013.041,7.926.131c.385,1.452,1.391,5.2,2.983,10.843q-2.249.2-4.25.4-1.328-2.675-2.655-5.376s.715,1.908,2.089,5.431c-8.041.786-12.776,1.394-12.776,1.394q6.718-.235,13.186-.344l.092.235c-2.986.191-4.631.322-4.631.322q2.4.013,4.774.041c3.257,8.3,9.337,23.4,17.759,42.726q2.063,6.406,4.364,13.318-12.531-13.688-25.458-28.493s10.616,14.745,28.43,37.314c12.248,35.954,28.8,79.688,48.824,121.026,8.015,16.55,13.233,28.432,22.3,41.866q-5.721-.858-11.363-1.791l-.014-.055s-4.847-8.884-17.331-36.468c-14.18-31.334-63.418-97.957-112.562-191.917,0,0,41.19,101.409,98.4,188.344,10.378,15.772,17.188,27.051,28.436,39.576q-8.191-1.392-16.213-2.937c-1.041-1.808-6.436-11.344-18.526-35.417-6.845-13.631-20.555-34-38.258-60.478q-4.611-8.471-9.683-17.8c-16.047-36.75-36.463-83.922-55.629-139.287,0,0,7.333,30.27,20.81,72.9-9.068-18.119-18.392-37.574-27.635-58.275,0,0,11.105,33.051,30.082,78.115q-3.444-5.462-6.95-11.109c-9.223-24.012-18.88-50.61-28.183-79.467,0,0,5.2,23.317,14.927,57.742q-8.69-14.493-17.551-30.032s7.931,17.3,21.465,43.62c10.779,36.731,25.937,82.865,44.836,126.507,7.066,16.318,11.66,28.059,19.713,41.365q-7.688-2.058-15.187-4.25l-.032-.335s-3.113-8.848-10.51-35.946c-8.4-30.782-43.148-99-74.2-192.272,0,0,23.034,98.938,62.142,186.937,7.189,16.178,11.746,27.593,20.253,40.933q-8.39-2.474-16.548-5.1c-.838-2.173-4.45-11.806-11.859-34.961-9.725-30.39-47.387-97.048-82.44-188.885,0,0,27.288,97.85,70.162,184.077,7.634,15.354,12.609,26.351,21.16,38.8q-7.656-2.5-15.113-5.115l-.035-.248s-3.506-8.7-12.108-35.439c-9.771-30.375-47.536-96.974-82.731-188.758,0,0,27.439,97.807,70.446,183.969,7.812,15.65,12.849,26.772,21.741,39.521q-7.062-2.513-13.943-5.123l-.138-.815s-3.731-8.6-13.026-35.112c-3.641-10.383-10.722-24.987-19.978-43.388-12.658-37.114-33-91.745-51.309-158.989,0,0,7.744,42.272,22.3,96.467-9.149-30.191-19.3-65.685-28.4-105.409,0,0,4.551,34.1,14.363,80.612-8.072-17.334-16.375-35.981-24.586-55.834,0,0,11.769,38.107,31.685,87.479,6.089,25.558,13.545,53.068,22.46,79.779,5.633,16.879,9.081,28.714,16.344,42.9q-7.543-3.272-14.834-6.64l-.046-1.239s-2.4-8.093-7.751-32.77c-6.081-28.031-34.571-91-58.2-176.22,0,0,15.845,89.891,47.278,170.812,5.917,15.234,9.548,25.848,17.065,38.645q-5.455-2.536-10.769-5.117l-.345-2.965s-3.284-8.786-11.2-35.735c-9-30.613-45.058-98.15-77.911-190.8,0,0,24.946,98.472,65.752,185.7,8.055,17.219,12.97,29.007,23.051,43.481q-7.569-3.687-14.854-7.451c-.126-.27-3.857-8.286-12.983-32.174-5.987-15.67-21.076-41.7-39.826-76.482-9.852-33.846-23.027-78.609-33.93-131.248,0,0,4.668,43,16.03,97.266-9.4-18.336-19.219-38.41-28.941-60.077,0,0,7.1,21.01,19.51,51.511-10.112-21.446-20.773-45.246-31.2-71.153,0,0,22.523,76.964,58.988,152.859q1.235,4.11,2.519,8.2c5.236,16.665,8.274,28.044,15.712,42.427q-14.2-8.386-27.058-16.836l-.068-.307s-3.94-7.763-13.968-31.786c-11.391-27.289-52.015-85.9-91.863-167.937,0,0,32.824,88.172,79.779,164.437,7.961,12.931,13.343,22.4,21.645,32.632q-5.8-3.867-11.32-7.712l-.161-.483s-4.535-7.388-16.6-30.409c-5.558-10.606-16.124-25.962-29.809-45.688-15.145-33.337-41.4-84.685-66.029-149.422,0,0,13.275,48.362,36.016,105.684-13.849-20.63-28.965-44.015-44.319-69.954a1241.8,1241.8,0,0,0,61.175,109.8c3.859,8.537,7.9,17.075,12.1,25.5,6.431,12.885,10.832,22.468,17.539,32.744q-4.226-3.313-8.217-6.552c-1.95-3.348-6-10.5-12.883-23.522-7.267-13.741-24.695-36.717-46.37-67.9-14.46-24.808-32.656-56.358-51.035-93.653,0,0,7.939,20.271,21.1,48.811q-7.033-11.046-14.214-22.953s11.9,24.721,30.855,57.484c9.154,18.155,19.581,37.464,30.829,55.937,5.033,8.265,8.855,14.861,13.345,21.318q-3.519-3.235-6.735-6.292c-1.893-2.926-6.32-9.96-14.3-23.609-7.578-12.953-24.985-34.1-46.868-62.741-17.7-26.057-43.193-62.289-69-107.253,0,0,33.592,74.149,78.667,137.228,4.172,5.839,7.619,10.83,11.154,15.519l-2.643-2.064c-2.664-3.522-6.141-8.193-10.571-14.279-14.865-20.417-59.74-61.138-108.917-121.428,0,0,44.837,66.739,98.5,120.869,3.415,3.445,6.436,6.556,9.343,9.462-21.988-18.343-69.188-49-122.71-94.835,0,0,43.848,45.217,97.2,85.942-21.537-14.759-47.076-32.734-74.475-54.3,0,0,58.664,54.8,121.952,96.058,11.774,7.675,19.727,13.276,31.071,18.548q5.821,5.48,11.685,10.772c-3.055-1.56-10.419-5.436-24.282-13.326C141.2,283.064,83.548,264.414,13.92,229.7c0,0,68.327,42.378,139.505,69.635,13.974,5.351,23.226,9.35,36.8,12.054q10.316,9.218,20.754,17.868c-2.863-.847-10.016-3.061-23.79-7.864-21.437-7.475-75.715-14.252-143.015-33.5,0,0,67.233,26.437,134.85,38.645,13.056,2.357,21.838,4.331,34.051,4.456q5.086,4.185,10.2,8.235c-1.439.01-5.622,0-13.869-.283-.9-.277-1.827-.561-2.792-.86-20.363-6.3-68.809-11.031-130.22-24.966q-4.676-1.3-9.433-2.682s1.106.442,3.181,1.242q-5.964-1.4-12.074-2.908s12.111,4.272,31.295,9.993c16.409,5.822,40.482,13.842,67.62,21.2C126.072,342.422,82.6,346.6,31.35,346.9c0,0,41.825,3.64,93.636,2.712,14.477,4.336,38.4,11.069,66.1,17.154-26.938.4-61.228.759-100.176-1.732,0,0,70.759,11.419,140.179,9.408,6.611,1.069,13.279,2.038,19.943,2.875,11.4,1.431,19.669,2.75,29.482,2.808q4.817,3.085,9.652,6.066c-3.546-.273-11.584-.994-26.448-2.808-24.408-2.977-83.472,2.309-159.15-2.589,0,0,16.709,2.7,42.071,5.333q2.346.4,4.956.831c23.016,5.068,80.93,16.707,137.923,19.275,13.708.618,23.123,1.422,35.467.031q4.54,2.44,9.092,4.8c-11.944-1.962-22.021-2.079-35.1-2.371-43.817-5.4-88.217-6.735-122.358-6.675-19.7-.314-31.885-.006-31.885-.006q2.412.171,4.8.351c-21,.5-33.99,1.365-33.99,1.365,36.52,1.151,69.793,3.917,98.688,6.846C157.053,414.473,112.4,422.145,112.4,422.145c73.709-5.465,134.287-2.711,170.125-3.548,22.8,3.422,40.558,5.968,52.163,6.129,14.756.2,23.929.539,29.107.79q4.658,2.126,9.325,4.169c-11.3-1.989-21.829-2.611-35.641-3.808-95.939-8.314-196.984,2.133-196.984,2.133,98.294-1.019,174.114,9.611,205.954,7.53,22.443-1.467,32.927-1.72,36.216-1.762q4.795,2.011,9.6,3.938c-13.209-.789-23.867.437-38.929,1.614-54.608,4.267-109.74,15.675-143,23.513-2.535.352-3.886.555-3.886.555.67-.038,1.336-.073,2-.11-18.339,4.356-29.54,7.5-29.54,7.5,19.672-3.539,38.422-6.359,55.992-8.685,17.539-.61,34.229-.856,49.923-.892-20.3,4.392-39.174,9.041-55.434,13.325-3.094.508-4.755.8-4.755.8.83-.069,1.655-.134,2.482-.2q-4.979,1.321-9.606,2.587h42.1c19.824-2.762,38.186-4.982,54.781-6.9,16.923-.375,32.568-.5,46.724-.591-21.131,2.242-40.824,4.911-57.734,7.488h88.858q5.14-.205,9.973-.405c-.984.136-1.974.267-2.955.405H502.515c6.7-2.044,10.7-3.167,12.649-3.7q7.015,1.387,14.023,2.629c-5.5.125-10.679.509-15.9,1.069h83.028c-2.547-4.907-7.539-14.83-15.734-32.3-6.194-13.2-18.776-32.679-35.057-57.842,12.845,14.153,26.52,28.589,40.7,42.661q1.075,2.3,2.163,4.585c8.078,16.973,13.18,28.9,22.771,42.893h2.213l-.017-.15s-2.294-6.061-7.617-23.436a227.349,227.349,0,0,0,20.99,23.586h3.51c-1.19-1.871-3.74-5.962-8-13.17a205.334,205.334,0,0,0,16.105,13.17h4.62c-3.178-3.713-11.036-13.122-25.7-31.953a285.748,285.748,0,0,0-19.627-21.845q-2.147-3.084-4.528-6.4c-2.259-5.4-4.825-11.3-7.649-17.668q6.687,6.72,13.6,13.467c7.365,9.04,14.934,18.024,22.658,26.815,13.268,15.1,22.186,26.039,35.679,37.583h3.395c-1.149-1.583-5.251-7.337-13.508-19.915a287.627,287.627,0,0,0,24.33,19.915h5.058c-3.583-3.9-10.628-11.726-22.416-25.459q4.369-1.448,8.662-2.826c8.616,10.417,15.832,19,25.271,27.815l-.944.47h.329l.786-.309c.11.1.216.206.328.309h4.05q-.458-.687-1.065-1.607,10.785-4.2,21.107-7.96c2.271,1.957,4.619,3.889,7.094,5.82-2.719,1.333-5.247,2.587-7.563,3.748h4.121q2.757-1.106,5.479-2.181c.34.258.685.516,1.03.774q-1.456.72-2.834,1.407h7.24l-.4-.793q6.154-2.439,12.119-4.721c2.124,1.768,4.349,3.538,6.709,5.327-.674.061-1.351.128-2.024.187h64.783l1.856-1.013.829-.132c-.425.382-.853.764-1.269,1.145H814.6c.544-.812.966-1.434,1.277-1.889q5.424-.881,10.8-1.812-1.3,1.534-2.54,3.055l-1,.646h33.135q4.015-1.831,7.778-3.554c-.1.1-.193.209-.29.313q-2.048,1.6-4.076,3.241H928.23c14.736-21.287,20.38-28.411,20.38-28.411l.439-.963c1.057-.858,1.533-1.223,1.533-1.223l.2-.253q2.045.623,4.037,1.218c-4.961,5.716-9.347,11.388-13.737,17.41-2.824,2.794-5.763,5.78-9.067,9.071q-1.575,1.568-3.139,3.151h16.5c4.773-9.5,8.549-16.831,11.452-22.364,2.794-3.595,3.982-4.991,3.982-4.991l.216-.443q1.441.42,2.85.823c-6.225,8.393-11.848,17.025-18.339,26.975H975V448.6c-.462-.125-.92-.254-1.382-.379q.731-1.5,1.382-2.819V379.579c-.016.117-.029.235-.045.353-.427-1.122-.866-2.277-1.313-3.454q.191-2.507.381-5.125L975,373.29V293.8c-6.279-11.193-13.129-23.32-20.406-36.337q1.881-9.762,4.034-19.9M486.554,158.052c-.207-.136-.422-.274-.642-.413a67.366,67.366,0,0,0,6.775,1.969q2.8,2.988,5.6,5.935c-2.079-1.263-5.791-3.58-11.736-7.491m14.291,7.509c-.4-1.085-1.353-3.707-2.983-8.615q1.058,1.811,2.135,3.607c2.684,4.468,4.758,8.093,7.132,11.6q-3.33-3.452-6.284-6.593m5.439,12.479c1.392.142,2.838.241,4.373.3q2.367,2.406,4.737,4.785c-1.88-1.008-4.816-2.622-9.11-5.081m12.225,5.683c-.525-1.974-1.9-7.4-4.252-18.48-.134-.63-.289-1.293-.46-1.982q1.447,3.7,2.959,7.365c3.334,8.073,5.532,13.925,9.253,20.493q-3.907-3.807-7.5-7.4m9.84,18.672a72.691,72.691,0,0,0,7.517.729q1.983,1.885,3.968,3.752c-1.793-.65-5.376-2-11.485-4.481m21.119,1.618a94.833,94.833,0,0,0,3.136,12.046q-1.835-1.658-3.628-3.293c.022-.831.117-3.458.491-8.753m-11.2,10.8c6.82-.166,9.344-.079,9.344-.079l.54-.119.278.256c.009.035.017.069.026.1l.017-.064q2.639,2.428,5.281,4.828a95.492,95.492,0,0,0-15.486-4.926m5.118,4.725c6.9.56,9.448.92,9.448.92l1.517-.176q2.567,2.326,5.136,4.626a106.021,106.021,0,0,0-16.1-5.369m10.742-2.108.011-.069s-.482-5.156-.753-20.62q.3,1.455.619,2.906c1.959,9,3.093,15.357,5.98,23.012q-2.98-2.64-5.859-5.229M135.442,258.391c1.2.977,2.436,1.951,3.732,2.93q1.993,2.14,3.993,4.252c-2.067-1.893-4.619-4.258-7.725-7.182m17.291,11.393c.24.3.476.588.712.88q-1.89-2.079-3.411-3.809c-.2-.346-.471-.828-.825-1.463q1.752,2.205,3.524,4.392m1.561,8.384c-2.475-2.157-5.509-4.548-9.042-7.178,1.9,1.024,3.9,2.032,6.017,3.033q5.309,5.457,10.657,10.747c-2.247-1.927-4.778-4.114-7.632-6.6m36.838,29.484c-1.08-2.255-3.046-6.457-6.109-13.354q2.144,2.966,4.322,5.9c4.788,6.455,8.637,11.849,12.723,16.943q-5.753-4.875-10.935-9.493m27.308,7.611q2.058,2.906,4.141,5.788c8.5,11.761,14.435,20.52,22.731,29.653q-10.379-7.38-19.693-14.56c-.826-2.182-3.1-8.379-7.179-20.881m24.9,39.3c-4.159-1.316-11.264-3.658-22.379-7.6-.406-.144-.826-.287-1.254-.431a117.075,117.075,0,0,0,13.592.491q5.009,3.828,10.041,7.535m-18.564-14.149q3.052,2.406,6.112,4.765c-2.095-.547-5.868-1.574-11.861-3.34,1.864-.416,3.772-.888,5.749-1.426m17.249,26.928c-2.01-.244-4.272-.427-6.764-.564-24.752-3.958-61.283-8.433-104.416-17.291,16.774-.409,34.445-1.316,51.976-2.988,9.627,2.25,19.439,4.326,29.263,6.118,13.518,2.466,22.78,4.549,35.183,4.814q8.775,6.369,17.618,12.377c-4.086-.353-11.3-1.064-22.859-2.467m20.73,5.272c1.645-.232,3.323-.506,5.052-.829q2.909,1.954,5.824,3.87c-2.968-.807-6.562-1.806-10.876-3.041m28.677-9.569c5.136,9.858,9.414,17.992,15.326,26.563q-6.289-3.529-12.335-7.091l.072-2.451s-1.022-4.533-3.063-17.021m-6.8,30.207c-7.44-1.218-18.174-1.882-31.666-2.467q1.634-.048,3.267-.1c14.123-.5,23.786-.434,36.43-2.962q7.627,4.659,15.292,9.068c-4.238-.56-11.613-1.616-23.323-3.534m13.122,6.469a131.134,131.134,0,0,0,13.715-.926q4.8,2.726,9.621,5.356c-4.134-.693-11.5-2.018-23.336-4.429m13.8-7.449c-1.481-3.781-5.053-13.257-11.321-31.874q1.273,2.256,2.562,4.5c7.769,13.52,12.929,23.31,21.3,34.116q-6.385-3.348-12.542-6.743m22.869,21.4c2.3-.2,3.3-.261,3.3-.261l.586-.186q2.2,1.118,4.4,2.219c-2.8-.68-5.54-1.258-8.282-1.772M462.556,420.1c-4.743-18.054-17.918-48.34-34.139-88.566,4.732,8.509,9.758,17.348,15.041,26.379,7.307,19.11,15.408,38.711,24.241,57.834,8.293,17.952,13.457,30.461,23.546,45.4q-9.364-2.2-18.474-4.6c-1.169-3.691-4.4-14.315-10.215-36.451m23.1,16.837a216.083,216.083,0,0,0,17.548,26.915q-5.084-1.1-10.1-2.266l-.137-1.358s-2.215-6.054-7.31-23.291M372.674,422.143v-.576s-2.25-9.105-7.013-36.788c-.861-5-2.3-11.019-4.188-17.977q3.065,8.879,6.324,17.688c6.314,17.038,10.2,28.861,18.1,43.181q-6.706-2.722-13.22-5.529m14.611,6.087-.1-1.581s-1.546-5.349-5.01-20.39a197.1,197.1,0,0,0,16.209,26.34q-5.613-2.155-11.1-4.368m-56.952,24.149q-5.965.233-11.794.521c19.319-1.958,34.472-3.694,44.4-6.07,24.558-5.876,32.89-7.225,32.89-7.225l.562-.245q5.143,2.025,10.293,3.956c-14.152-.017-25.74,1.862-41.974,3.924-11.5,1.461-23.017,3.2-34.378,5.139m64.313-.452q-4.129-.12-8.259-.2c17.977-4.987,24.819-6.464,25.3-6.565q7.107,2.6,14.225,5.025c-10.657-.2-20.017.643-31.263,1.738m36.839.133q3.5,1.16,7.009,2.278c-4.282-.541-8.453-.9-12.732-1.162,3.4-.7,5.179-1.02,5.723-1.117m18.332,5.916.231-.067q4.5,1.347,9,2.628a234.606,234.606,0,0,0-24.8-1.331c11.315-1.063,15.57-1.23,15.57-1.23m8.017,6.6c7.134-.8,9.95-.985,9.95-.985l1.067-.338q2.886.776,5.773,1.526c-5.565-.287-10.995-.3-16.789-.2m13.241,5.773c9.38-1.474,14.424-2.118,16.431-2.355q3.379.809,6.756,1.582a226.911,226.911,0,0,0-23.187.774m26.215,2.633c4.363-.853,6.171-1.134,6.171-1.134l.363-.152q1.112.239,2.223.474c-2.975.2-5.873.477-8.757.812m9.279-8.4c-1.008-2.258-4.025-9.2-9.666-23.649a231.238,231.238,0,0,0,20.124,25.786q-5.264-1.039-10.459-2.137M924.05,267.969q5.628,10.744,11.575,21.708,2.773,6.469,5.642,12.983-.54,2.33-1.08,4.714c-5.113-9.517-10.646-19.731-16.512-30.618q.169-4.343.375-8.787m11,144.858c.006,4.745.09,9.207.4,13.76-1.654-3.815-3.676-8.555-6.1-14.354q.74-2.779,1.608-5.976c1.36,2.231,2.717,4.415,4.093,6.57m-.478-23.282q.367-2.159.732-4.477-.073,2.994-.119,5.991l-.613-1.514M922.6,351q3.03,7.761,6.185,15.492-.6,3.85-1.16,7.727-2.307-4.662-5.037-9.851.021-6.346.013-13.369m-.559,40.248q1.433,2.436,2.806,4.768-.238,2.145-.471,4.169-1.136-2.778-2.357-5.784c-.046-.115-.1-.235-.145-.35.06-.906.116-1.843.167-2.8m.315,40.652c-1.143-2.458-2.453-5.306-3.941-8.583.3-2.662.69-5.967,1.2-10.02q1.478,2.4,2.968,4.731a132.4,132.4,0,0,0-.231,13.873m-3.3-173.552q1.313,2.543,2.645,5.1-.49,3.7-1,7.771-1.26-2.344-2.539-4.727.427-4.034.891-8.148m-8.157-16q3.085,6.123,6.291,12.374-.69,3.461-1.426,7.294-2.537-4.74-5.141-9.633.116-4.962.276-10.035M910.725,406.1c.182-2.039.383-4.238.608-6.617q1.142,1.936,2.251,3.807c.063,3.461.139,6.719.283,9.912q-1.487-3.342-3.142-7.1m2.819,23.692q-2.231-.763-4.455-1.532l.018-.069s.037-1.306.232-4.437c1.378,2.035,2.774,4.042,4.206,6.038m-1.569-84.978q.553-8.894,1.2-18.793.906,2.482,1.825,4.968c-.372,5.742-.7,11.6-.962,17.547q-1.012-1.837-2.059-3.722m-1.944-104.177c-.284,2.584-.6,5.56-.935,8.888q-1.279-2.407-2.57-4.849.782-3.879,1.61-7.822.941,1.885,1.9,3.783m-8.075,185.114c.258-1.738.788-5.079,1.772-10.535q1.244,1.941,2.48,3.833c.365,2.811.824,5.679,1.416,8.7q-2.841-.993-5.668-2M906.049,432l-.72.255-.426-.67,1.146.414m-.1-199.54q1.011,2.036,2.035,4.088c-.476,1.582-1.178,3.944-2.057,6.991l-.774-1.466q.372-4.759.8-9.613m-3.73,62.349q1.362,4.032,2.76,8.094c-.469,8.727-.861,17.923-1.123,27.412q-1.22-2.164-2.47-4.377c.191-9.68.441-20.088.834-31.129m-.932,142.407q1.358,1.451,2.755,2.893c-2.216.937-4.428,1.925-6.7,2.968q-.571-.953-1.235-2.074c2.045-1.513,3.761-2.763,5.181-3.787m-17.069-19.767q.108.93.231,1.878c-.335-.126-.671-.252-1.006-.378q-2.019-3.6-4.3-7.71c1.744,2.136,3.43,4.2,5.078,6.21m-2.576-22.442c.51-1.923,1.063-3.988,1.668-6.222.082-.3.164-.614.244-.929-.082,3.388-.163,6.55-.2,9.6q-.832-1.2-1.712-2.451m1.767,38.957c-1.166.427-2.329.868-3.5,1.323,1.033-.729,2-1.408,2.892-2.03q.3.355.6.708m-3.358-4c-2,.884-3.964,1.806-5.943,2.771l-.719-1.36c2.088-1.362,3.778-2.446,5.122-3.3q.768.947,1.539,1.885m6.771,7.9q.8.893,1.615,1.784c-2.7,1.379-5.408,2.839-8.263,4.4-.292-.535-.593-1.088-.9-1.664,2.859-1.728,5.368-3.227,7.552-4.519m-.778-17.937.026-.226.283.342-.309-.116m3.923,6.124q-1.061.368-2.089.747-.547-.961-1.12-1.972,1.611.618,3.209,1.225M888.236,404.8c.506-3.162,1.122-6.888,1.867-11.231q.544.865,1.089,1.729l.021.034c.011,5.236.076,10.039.385,14.907q-.969-1.578-1.982-3.231c-.44-.719-.9-1.459-1.38-2.208m4.105,39.007c.354.366.707.732,1.066,1.1-2.129,1-4.341,2.042-6.679,3.136q3.071-2.333,5.613-4.234m.026-9.183c1.809-1.043,3.235-1.85,4.316-2.452q1.139,1.281,2.293,2.548c-1.783.746-3.508,1.516-5.207,2.313q-.666-1.141-1.4-2.409m7.605-54.387.458.788q-.086,1.6-.163,3.209c-.168-.314-.333-.624-.5-.942.074-.988.144-2.008.209-3.055M897,404.554q1.178,1.882,2.32,3.7a140.95,140.95,0,0,0,.541,15.323q-2.078-3.323-4.46-7.171c.361-2.9.874-6.786,1.6-11.853m-6.416,26.982q-.717-1.248-1.491-2.6c1.551-1.044,2.529-1.68,3.031-2q1.436,1.682,2.874,3.328c-1.511.408-2.977.833-4.413,1.276M878.352,237.53c4.773,11.814,9.891,24.119,15.327,36.722-1.412,9.35-2.849,19.692-4.179,30.694q-6.3-11.142-13.127-23.325c.353-13.824.957-28.575,1.979-44.091m-2.39,69.371q3.826,7.672,7.814,15.436-3.794-6.675-7.826-13.777c0-.551.008-1.1.012-1.659m6.069,41.25q-.275,1.663-.544,3.332-2.681-4.5-5.541-9.257-.008-2.718-.017-5.547,3.01,5.729,6.1,11.472m-6.249,21.943q1.219,2.055,2.447,4.108-.4,3.223-.769,6.448c-.294,2.6-.584,5.036-.858,7.371q-.857-1.166-1.745-2.361c.49-4.246.77-9.464.925-15.565m-7.668-79.173q1.361,2.814,2.747,5.648-.112,1.3-.222,2.614-1.275-2.257-2.571-4.556.021-1.841.046-3.706m.83,32.276q-.193,3.376-.362,6.8l-.588-.974q-.016-3.78-.026-7.742.486.956.976,1.912m.351,94.748q-1.38.191-2.7.4l-.78-1.513c-.066-.128-.138-.262-.205-.391q1.852.758,3.689,1.5m-1.591-45.8q.022,2.059.058,4.117l-.266-.347q.118-1.805.207-3.77m-1.565,40.062q-1.231-.493-2.46-.986l.118-.385s.027-.481.112-1.552l2.231,2.923M857.1,267.68q3.271,7.047,6.716,14.288-.206,2.159-.407,4.375-3.118-5.561-6.323-11.327,0-3.626.014-7.336M859.818,366l-.88-1.128c-.013-7.178-.232-15.58-.517-25.07q.8,1.444,1.607,2.889c-.2,7.7-.28,15.5-.211,23.309m-2.212-54.206q-.144-5.739-.26-11.808,2.119,4.336,4.293,8.714-.295,4.379-.553,8.873-1.718-2.852-3.479-5.78m-.958,88.013q1.2,1.579,2.414,3.152,1.35,1.755,2.644,3.446.3,2.063.694,4.219-2.58-4.468-5.847-9.607c.03-.39.062-.791.1-1.211m2.9,27.022q1.785,2.439,3.523,4.769c-1.151.532-2.314,1.078-3.5,1.641q-1.46-2.329-3.083-4.938c1.082-.524,2.1-1.013,3.058-1.473m-7.149-32.24q-1.1-1.672-2.254-3.4,1.1,1.48,2.215,2.956c.013.15.026.3.039.448m-8.516-48.829c-2.036-13.191-4.647-28.957-7.307-46.911,4.5,8.757,9.186,17.681,14.048,26.7-.193,9.362-.233,18.98-.06,28.668q-3.251-4.12-6.681-8.452m.008,61.507c-.189.007-.379.013-.566.022-.086-.126-.174-.255-.261-.382l.828.36m-3,17.085.425.507c-1.66.532-3.372,1.084-5.157,1.657q2.516-1.158,4.732-2.164m-2.13-23.568q-2.809-3.9-6.038-8.172c.005-.939.016-2.02.033-3.251q3.191,4.662,6.445,9.3.358,1.305.758,2.643l-1.2-.52m7.606,7.945.972,1.342q-1.058.037-2.1.091c-.2-.312-.406-.623-.617-.94.76-.219,1.338-.382,1.743-.493m2.535,3.491q.526.721,1.052,1.441c.572.781,1.133,1.547,1.688,2.308q-1.234.24-2.444.5c-.414-.676-.831-1.358-1.256-2.054q-.506-.829-1.046-1.686c.745-.191,1.409-.359,2.006-.509m3.225-123.024q-.365,6-.671,12.343-9.078-15.169-18.945-32.032c-1.254-9.806-2.455-20.086-3.542-30.788,6.879,15.655,14.64,32.7,23.159,50.477m-24.37-53.239q.006.223.012.45c-.011-.166-.022-.332-.033-.5l.021.049m-1.2,43.05c.182,6.447.436,13.222.782,20.232q-.923-10.564-1.742-22.17.479.967.96,1.938m-20.4-42.546c4.816,10.4,10.1,21.542,15.8,33.207-.251,14.022-.223,30.936.519,49.013q-2.589-3.289-5.241-6.672c-3.558-21.184-7.718-46.7-11.076-75.548m-1.076,154.3,1.13-.808q4.045,1.955,8.045,3.847c-3.552.055-6.829.264-10.014.593q-1.091-1.168-2.21-2.36c2.134-.917,3.049-1.272,3.049-1.272m-4.8-.59q-1.684-1.787-3.431-3.632l.019-.005,1.121-.6q3.62,1.789,7.207,3.528c-1.7.207-3.335.443-4.917.707m13.678-29.235q2.222,3.473,4.485,6.956c.548,2.946,1.076,5.724,1.639,8.428q-2.425-3.065-4.984-6.27c-.216-1.787-.443-3.7-.681-5.774q-.181-1.575-.459-3.34m.543,34.216,1.182-.676.744.351q.707.878,1.416,1.756c-3.69.136-7.179.45-10.746.878l-.014-.015c5.309-1.724,7.417-2.294,7.417-2.294m5.258,3.793.811,1c-3.311.435-6.476.987-9.677,1.635l-.077-.085c3.922-1.153,6.845-1.974,8.944-2.546m-8.52-10.611c-.918-.432-1.829-.867-2.744-1.3l.055-.52s-.087-.58-.249-1.9q1.464,1.862,2.937,3.72m-4.942-29.255-.353-.438q-.048-.607-.11-1.24.23.84.463,1.678m-6.727,14.291q2.451,3.195,4.932,6.385c.738,2.136,1.56,4.309,2.5,6.569q-3.741-1.781-7.445-3.579l.071-.341s-.111-2.506-.058-9.034m-4.637-6.082a115.88,115.88,0,0,0,3.274,14.8q-2.611-1.274-5.2-2.557c-.253-1.581-1.031-6.776-2.231-17.765q2.067,2.759,4.159,5.52m1.686,17.971c-.329,0-.657,0-.981,0l-.876-.923c.619.309,1.24.619,1.857.925m-27.08,43.41q5.428-.864,10.487-1.661c2.137,3.046,4.147,5.936,6.081,8.7q-4.175,1.492-8.273,3.008-1.117-1.414-2.284-2.9c-1.753-2.228-3.767-4.616-6.011-7.153m4.184,20.85-1.674.7q-.763-.753-1.554-1.535l1.731-.546q.751.695,1.5,1.379m-12.505-10.081c-2.451-2.46-5.314-5.11-8.546-7.947l1.4-.277q2.411,2.268,4.837,4.517c2.716,2.517,5.279,4.915,7.742,7.216l-1.387.537q-1.946-1.943-4.042-4.045m1.274,14.864q-2.478,1.075-4.9,2.14-1.516-1.255-3.146-2.612,2.582-.841,5.108-1.655,1.482,1.079,2.938,2.127M735.61,394.1q-3.564-3.466-7.339-7.116c9.516-.4,17.61-.838,24.063-1.517q1.526,2.414,3.068,4.829c-6.647,1.158-13.266,2.438-19.792,3.8m6.373,25.546q-1.272.4-2.535.8-1.825-1.471-3.736-2.99l3.041-.969q1.61,1.584,3.23,3.161M584.462,317.088q6.349,1.012,12.412,2.054-4.331,1.095-8.547,2.222-1.924-2.121-3.865-4.276m1.331,10.794-1.108.061,1-.2.111.142m-26.547-65.355q.579.794,1.2,1.647c-8.963-.745-17.695-1.268-25.907-1.625q-1.755-2.527-3.517-5.084c10.441,1.793,19.9,3.547,28.221,5.063m-4.525-6.843q1.636.3,3.206.575-1.549-.224-3.089-.438l-.117-.137M635.7,303.007l.9,0q2.622,3.236,5.393,6.619l-2.872.517c-11.365-1.037-22.733-1.677-33.686-2.035q-3.755-4.438-7.564-9c16.672,2.226,29.588,3.927,37.826,3.9m-10.86-7.368c2.191.082,4.194.163,6.024.242l.6.746-.993-.152q-2.81-.435-5.629-.836m43.273,45.05,1.031,1.193c-10.615-.243-21.068-.235-31.025-.062q-2.982-2.385-6-4.819c13.786,1.379,25.885,2.732,36,3.688m-25.023-19.623c3.293.365,6.339.671,9.118.9l.543.648q-4.859-.814-9.661-1.547m38.832-59.715-.546-3.014q1.376,2.775,2.864,5.743-1.157-1.359-2.318-2.729m3.238,8.925q-1.048-1.289-2.1-2.586l-.075-.42q1.063,1.473,2.174,3.007m2.3,49.166q-3.908-2.532-7.741-5.067c-.125-2.121-.443-8.89-.491-23.422-.007-2.057-.122-4.4-.325-7q.647,3.461,1.345,6.911c2.267,11.163,3.5,18.838,7.212,28.575m-.812,2.935q3.184,2.08,6.358,4.12c-8.424-1.223-15.35-1.067-24.752-1.079q-1.689-.329-3.378-.648-1.158-1.172-2.321-2.352c17.094-.168,22.817.2,22.817.2Zm23.365,14.831q2.285,1.41,4.563,2.8c-9.533-2.548-17.485-3.258-28.669-4.662q-4.027-.505-8.068-.946l.359-.026c2.969.421,5.621.719,7.939.872,14.483.953,21.463,1.683,23.876,1.963m-8.609-4.377c.661-.026,1.15-.041,1.49-.05.513.322,1.025.64,1.538.961q-1.522-.482-3.027-.911m26.341,15.08q1.383.817,2.763,1.627l.395.674c-10.839-.756-19.064.278-31.063,1.307q-3.7.317-7.4.69-1.6-1.568-3.217-3.16c4.324.042,8.071-.029,11.186-.258,18.641-1.374,24.866-1.422,24.866-1.422l1.112-.258,1.238.732c.04.08.076.158.116.238Zm17.275,25.821q1.41,2.291,2.838,4.589c-9.111.223-18.228.685-27.181,1.317l-4.063-3.926c10.517-.218,19-.6,25.087-1.5,1.152-.169,2.255-.329,3.319-.482m-2.157-76.456c3.14,8.076,6.511,16.381,10.091,24.725q1.024,5.961,2.184,11.9c.793,4.048,1.463,7.669,2.151,11.093q-3.672-3.882-7.449-7.9c-.123-1.372-.25-2.816-.382-4.354-.69-8.044-3.22-20.082-6.6-35.465m-9.775,66.441q-1.46-.293-2.92-.578c2.982-.419,5.561-.767,7.774-1.054l.852,1.416c-1.836.059-3.727.135-5.706.216M727.05,358c3.059-.838,5.462-1.472,7.3-1.944q.626,1.057,1.257,2.115c-2.774-.115-5.58-.154-8.556-.172m-16.826-1.972c15.6-3.721,21-4.623,21-4.623l.3-.131q.7,1.2,1.409,2.395c-7.484.23-14.17,1.223-22.714,2.359m-19.977,26.4q-4.029-3.079-8.2-6.282,9.275-.129,17.521-.2,2.323,2.516,4.678,5.042c-4.756.446-9.431.931-14,1.442m6.007,21.066-.936.25q-2.761-2.81-5.681-5.755,3.286,2.752,6.618,5.505m-12.178-36.265q3.418-.525,6.583-1.029l.278.307q-3.455.346-6.861.722m35.337-27.886.1-.64s-.23-2.529-.488-9.188q1.645,2.92,3.328,5.878c.883,2.465,1.843,4.916,2.95,7.448q-2.96-1.747-5.888-3.5m5.357,6.8c-10.224-2.144-18.39-2.39-30.136-3.163q-6.1-.4-12.222-.666l-.539-.535c3.725.214,6.994.3,9.766.229,18.732-.5,24.982-.22,24.982-.22l.674-.135q3.746,2.27,7.474,4.49m-87.72,14.16q-5.414,1.007-10.559,2.034-5.878-6.172-12.034-12.714,7.815,1.057,15.315,2.192,3.582,4.209,7.278,8.487m-15.7-33.642q-1.587-1.828-3.188-3.681,9.068,1.714,17.251,3.348-2.217.13-4.413.275-4.88,0-9.65.057m21.089,39.843,1.523,1.739q-4.929,1.153-9.625,2.31-1.713-1.787-3.451-3.606,5.906-.257,11.553-.443m-33.41-39.595c-5.229.145-10.292.336-15.136.557l-1.078-1.18q7.125-1.429,13.525-2.686,1.332,1.643,2.69,3.309m-11.809-34.446q1.369.083,2.685.156l1.535.239q-2.116-.2-4.22-.395m21.714-5.239c1.788-.118,3.39-.218,4.814-.3l.63.8c-1.751-.172-3.556-.333-5.445-.5m-14.094-5.525c-.364-.029-.729-.056-1.093-.085,6.508-.621,11.342-1.022,14.832-1.281q1.039,1.333,2.127,2.721c-4.871-.558-9.868-.871-15.866-1.356m-6.715-5.756c-6.594-.373-13.224-.6-19.8-.705q-1.342-1.67-2.687-3.357a189.846,189.846,0,0,0,21.043,1.673c8.013-.044,13.363.023,16.717.1q1.295,1.682,2.695,3.487c-5.564-.611-11.093-.809-17.971-1.2m-91.777,8.025q.78,1.222,1.589,2.484c-4.106.285-7.551.558-10.205.784q-1.131-1.648-2.265-3.308,5.529-.016,10.882.041m-11.579-1.064c-.578-.847-1.155-1.693-1.734-2.546q5.545-.126,10.9-.177.594.937,1.209,1.9c-3.9.281-7.392.562-10.379.819m12.313-2.748q3.043-.02,6.022-.018,4.269.453,8.424.934c-4.725.244-9.131.514-13.162.788q-.642-.85-1.285-1.7m24.318,4.411c.061.2.123.4.185.6-7.481.3-14.213.664-19.928,1.033q-.831-1.093-1.663-2.191,11.132.161,21.406.554m17.737,4.726.336.55c-4.224-.1-8.217-.156-11.928-.187-.129-.322-.258-.642-.388-.965q6.152.275,11.98.6m-13.447-4.273-.116-.292q2.011.081,3.982.168-1.961.057-3.866.123m8.06-9.368q-2.963-4.173-5.946-8.432,1.676.2,3.318.39c1.322,1.9,3.2,4.577,5.591,7.936q-1.49.05-2.963.106m-2.772.11q-4.483.186-8.775.414-1.934-4.953-3.869-10.018,3.808.411,7.464.831c1.545,2.64,3.276,5.574,5.18,8.773m-8.37,12.737c.116.375.233.754.351,1.133-7.993-.02-14.374.086-18.547.187-.484-.633-.967-1.265-1.452-1.9q10.158.188,19.648.581m1,3.205c1.688,5.415,3.514,11.15,5.471,17.148-3.625.192-6.8.386-9.458.562q-7.305-9.279-14.817-19.087,9.665.594,18.8,1.377m4.939.433q6.723.608,13.119,1.28c2.82,4.589,5.849,9.465,9.07,14.582-5.609.147-10.8.34-15.454.55q-3.344-8.025-6.735-16.412m15.19-2.581q1.634.1,3.237.2l.225.308q-1.6-.052-3.167-.1l-.3-.405m3.227,4.43q1.713.188,3.4.379c3.062,4.151,6.413,8.648,10.029,13.438q-1.611.023-3.186.052-5.07-6.8-10.243-13.869m3.575-4.011q4.42.282,8.6.569-4.3-.208-8.423-.36l-.18-.208m4.248,4.9q8.383.981,16.049,1.976c3.194,3.272,6.8,6.936,10.788,10.934-5.344-.07-10.535-.079-15.518-.042q-5.605-6.308-11.319-12.867m19.767,2.458,1.048.137q.9,1.156,1.815,2.331-1.429-1.23-2.862-2.468m-8.465-22.126q-2.186-.027-4.36-.036-1.86-2.1-3.728-4.219,2.945.367,5.685.7,1.136,1.688,2.4,3.557m-13.9-10.894-1.3-1.5q4.115.746,7.841,1.4l.494.747q-3.534-.35-7.034-.65m3,6.287q1.608,2.169,3.4,4.564c-6.96,0-13.8.128-20.4.336q-3.266-3.876-6.553-7.828c8.595,1.023,16.478,2.037,23.559,2.928m-37.48-17.978c-.312-.457-.623-.91-.936-1.369,0,0,.258.465.755,1.351q-2.247-.218-4.439-.417c-.3-.8-.592-1.6-.888-2.408,12.091,2.1,22.844,4.144,32.04,5.81l.112.156c-9.226-1.278-18.213-2.3-26.644-3.123m2.49,4.692c.844,1.477,1.838,3.206,2.976,5.169q-3.221-.134-6.326-.236-1.1-2.915-2.2-5.869,2.819.469,5.554.936m-1.28,19.044c-8.646.495-16.568,1.09-23.427,1.682q-5.5-7.329-11.063-14.929c11.118.776,21.621,1.746,31.411,2.78.936,3.235,1.964,6.734,3.079,10.467m-26.181,1.924c-3.888.349-7.39.692-10.427,1.007q-5.644-8.326-11.366-17,6.265.325,12.3.74c2.429,3.969,5.621,9.126,9.49,15.252M490.8,283.268c-5.106.472-7.988.8-7.988.8q4.236-.08,8.383-.113,1.034,1.808,2.111,3.682c-1.135.107-1.741.171-1.741.171.613-.005,1.223-.008,1.833-.012,3.82,6.638,8.052,13.879,12.653,21.589q-11.985-12.124-24.382-25.176-.977-1.707-1.956-3.43,4.805-.19,9.491-.318.784,1.379,1.6,2.8m7.3,4.518q5.446,0,10.732.074l1.345,2.089c-.819.028-1.256.047-1.256.047l1.334.074c3.9,6.048,8.248,12.694,12.992,19.81-1.838.144-2.823.233-2.823.233q1.5.011,3,.029c5.335,8,11.171,16.589,17.437,25.59-2.159.729-4.2,1.426-6.091,2.083q-1.863-1.806-3.743-3.638c-10.49-14.353-21.551-29.83-32.925-46.39m32.165,22.464q3.88.077,7.682.188l1.67.087c2.071,6.319,4.287,12.921,6.642,19.742q-7.832-9.676-15.993-20.017m15.989.651.39.024c4.816,4.208,11.421,9.912,19.511,16.737q-3.442,1.035-6.713,2.051-2.673.227-5,.44-4.029-9.334-8.185-19.251m2.161.135q7.631.486,14.911,1.084l.509.8c-8.371-.469-13.264-.606-13.264-.606q7.148.867,14.034,1.82,3.632,5.709,7.546,11.748-1.252.365-2.485.73-10.475-7.558-21.252-15.578m22.912,2.341-.459-.611q1.772.159,3.519.323l.4.521q-1.782-.123-3.456-.233m5.168,2.475q2.7,3.528,5.553,7.217-1.407.39-2.795.78-3.212-4.214-6.48-8.551,1.871.275,3.722.554m5.3-1.728-.309-.345q7.418.748,14.348,1.54c-4.987-.464-9.688-.859-14.04-1.2m8.755,19.823q3.652,4.634,7.5,9.441-1.814.109-3.555.22-3.638-4.664-7.368-9.5,1.721-.086,3.422-.165m9.543,11.982q1.978,2.459,4,4.955-3.578-2.467-7.208-4.992,1.611.016,3.2.037m-.079-11.793q8.285.632,16.037,1.335,2.776,3.357,5.644,6.785c-4.729.168-9.279.366-13.607.581q-3.99-4.276-8.075-8.7m11.15,11.991q7.266.164,14.114.4,1.444,1.713,2.91,3.442c-5.912-.435-10.769-.738-14.3-.937q-1.354-1.441-2.721-2.9m1.185,19.157-.666.144-1.416-1.784q1.035.816,2.082,1.639m3.738,2.932q3.292,2.575,6.682,5.2l.056.066q-1.99.518-3.91,1.028-2.367-2.965-4.8-6.024l1.974-.268m10.63,9.841q5.089,5.956,10.365,11.981-2.654.46-5.046.89-4.765-5.966-9.907-12.394,2.308-.245,4.588-.477m11.973,13.813c6.572,7.471,13.341,14.983,20.266,22.447q-3.568,1.118-6.777,2.153c-5.583-7.252-11.958-15.288-18.988-24.094q2.769-.263,5.5-.506m18.888-5.145q-7.085-4.638-14.535-9.565,4.247-.173,8.368-.31,3.883,4.789,7.878,9.621l-1.711.255m-1.36-30.576q1.261.221,2.511.443l-1.619.255-.892-.7m-5.414-4.255q-2.886-2.274-5.817-4.6c11.285.5,21.36,1.015,30.047,1.361q2.184,2.5,4.415,5.019-2.808.349-5.6.721c-8.174-.986-15.92-1.812-23.045-2.5m25.641,61.254q6.151,4.337,12.426,8.654-2.232.715-4.386,1.417-4.228-4.662-9.106-9.847l1.067-.224m16.433,12.119q.547.6,1.1,1.2-2.412,1.044-4.739,2.067-.867-.986-1.768-2,2.729-.646,5.412-1.269m4.4,4.8q1.673,1.814,3.356,3.619-2.722.993-5.335,1.964-1.511-1.84-3.187-3.8,2.608-.908,5.166-1.784m6.614,7.093.487.515q-3.18.876-6.1,1.7l-.4-.515q3.035-.866,6.014-1.7m-3.965-28.694,1.929-.366q4.329,3.531,8.723,7.044-1.659.486-3.294.972-3.491-3.678-7.357-7.65m-2.175-20.3q6.633-.276,12.759-.5,4.681,4.945,9.474,9.9-3.82.893-7.564,1.809-7.009-5.365-14.669-11.2m21.8,16.673q3.278-.591,6.413-1.153,2.765,2.813,5.563,5.618-2.32.612-4.611,1.233-3.563-2.773-7.365-5.7m4.258,20.71q-2.312.779-4.579,1.555-2.128-1.441-4.36-2.935,2.555-.838,5.045-1.647,1.942,1.517,3.894,3.027m36.078-28.3q1.1,1.7,2.218,3.4-6.26,1.992-12.439,4.113-1.278.3-2.55.608-2.3-2.277-4.719-4.648c6.576-1.213,12.433-2.349,17.49-3.47m-3.036,17.892q-.739-.757-1.5-1.525,7.354-1.216,13.839-2.312l.2.295q-6.324,1.724-12.542,3.542m6.1-91.826q1.655,2.365,3.334,4.747c2.229,6.342,4.578,12.691,7.047,18.971,4.184,10.643,6.929,18.405,11.687,27.073q-3.649-3.821-7.481-7.831c-1.3-3.863-3.066-9.233-5.357-16.5a213.432,213.432,0,0,0-8.074-20.259q-.509-2.926-1.155-6.2m4.009,31.873q-.16-1.551-.336-3.357c1.011,2.121,1.977,4.136,2.931,6.082l-2.595-2.724m23.812,87.156.142.2q-3.855,1.514-7.635,3.042l-.582-.729q4.154-1.294,8.075-2.512m-2.674-65.26-.007-.164s-1.907-6.335-6.188-25.649q-.232-1.049-.518-2.18l.969,1.323c2.831,10.82,4.706,18.788,8.681,28.138q-1.473-.732-2.937-1.467m1.669-55.535c.493,6.384,1.086,12.829,1.794,19.269q-2.524-3.129-5.12-6.351c-1.966-8.867-4.565-19.438-7.471-31.515q5.18,9.075,10.8,18.6m-2.688-23.37q.172,1.156.348,2.318-6.84-10.124-13.96-20.933-.656-2.872-1.316-5.821c4.724,7.88,9.708,16.053,14.928,24.436M775.27,320.549q-3.057-3.824-6.191-7.765c-5.656-15.336-12.526-33.774-19.581-54.839q-.962-6.236-1.9-12.807c5.762,11.182,12.856,24.6,21.068,39.461,1.827,11.455,4.011,23.608,6.607,35.95m-9.849-58.128q.4,2.992.834,6.1-9.724-15.012-19.75-31.226-.67-4.967-1.311-10.1c5.862,10.484,12.648,22.368,20.227,35.228m-17.6,23.3q-3.79-4.888-7.651-9.921c-1.2-15.106-2.5-32.6-3.332-51.994q.759,1.54,1.606,3.246c.955,4.524,2.158,10.025,3.608,16.292,1.412,12.666,3.292,27.135,5.769,42.377m-11.09-64.494q-.063-1.564-.122-3.143c.246,1.248.542,2.727.888,4.417-.255-.425-.511-.848-.766-1.274m6.335,2.142c.076,1.874.163,3.859.262,5.941q-.7-3.936-1.387-7.968l1.125,2.027m-3.576-6.467c.26,3.168.563,6.653.916,10.414-.419-.689-.836-1.376-1.255-2.069q-1.311-4.412-2.6-8.934-.089-2.525-.166-5.088,1.492,2.736,3.109,5.677m-1.532-8.335q-.86-1.32-1.72-2.643c0-.086,0-.172-.006-.258q.83,1.4,1.726,2.9m-3.737,80.176c.472,10.225,1.192,20.656,2.238,30.994.117,1.156.227,2.276.334,3.368q-.981-1.059-1.967-2.128c-.378-10.629-2.539-26.657-5.048-46.96q1.342,2.07,2.716,4.176.814,5.21,1.727,10.549m-3.988-26.01,0,.01c-.719-.953-1.442-1.914-2.165-2.873q-.307-2.623-.614-5.32,1.322,3.951,2.777,8.183m-7.535.277c.867,15.667,2.268,32.521,4.479,49.263q-4.355-6.322-8.831-12.913-.853-3.13-1.807-6.526c-1.865-13.6-4.748-31.1-7.6-51.729,4.166,6.744,8.766,14.086,13.753,21.9m-9.554,55.969.49.886a124.167,124.167,0,0,0,4.624,18.793q-3.667-2.2-7.275-4.414c-.223-1.287-1.234-7.44-2.917-22.19q2.5,3.43,5.079,6.925m-4.007,14.136q-2.305-1.417-4.588-2.836l.04-.192s-.1-2.658.019-9.685a115.162,115.162,0,0,0,4.529,12.713m-5.628-55.929c-.509-5.6-1.109-11.747-1.745-18.381,1.645,7.749,3.466,15.811,5.468,24.007q-1.854-2.791-3.723-5.626m-.113-45.125c.333,5.855.741,12.007,1.242,18.365q-2.711-10-5.516-21-.2-2.513-.4-5.085,2.2,3.661,4.677,7.722M697.7,302.725c.149-1.379.261-2.9.344-4.562l.261.365q.045.395.091.789c1.372,11.742,2.011,19.922,4.79,30.119q-3.765-2.347-7.466-4.7c.07-1.471.429-7.652,1.98-22.012m-2.712,25.181.136-.047q2.28,1.458,4.554,2.9a125.4,125.4,0,0,0-13.528-1.792c6.406-.865,8.838-1.058,8.838-1.058m-6.678-7.913.142-1.065s-.683-5.763-1.442-23.105a150.861,150.861,0,0,0-1.9-16.069q3.144,4.541,6.5,9.313.125,3.969.319,7.934c.514,10.435.6,17.747,2.418,26.861q-3.035-1.933-6.032-3.869m-5.75-123.219c.473.843,4.388,7.794,11.139,19.175q.068.418.139.841c-.622,7.481-1.2,15.758-1.645,24.547-3.185-13.488-6.511-28.412-9.632-44.562m8.829,70.652q-.01.923-.015,1.85-5.7-9.33-11.478-19.091-.6-3.353-1.231-6.878c3.605,6.986,7.87,15.109,12.724,24.119M685.1,321.367a120.479,120.479,0,0,0-19.5-4.176c8.92-.319,12.2-.236,12.2-.236l.464-.109q3.422,2.281,6.835,4.521m-18.268-15.92s.154-5.792,1.9-23.041a168.2,168.2,0,0,0,.389-18.782c.874,7.276,1.9,14.612,3.1,21.892,1.778,10.787,2.749,18.467,5.638,27.635q-5.626-3.731-11.1-7.461Zm8.924,9.722c-7.671-1.975-14.259-2.7-22.405-3.563,7.906-2.588,10.87-3.366,10.87-3.366l.737-.411q5.411,3.726,10.8,7.341M651.781,229.6c2.617,4.128,6.047,9.476,10.207,15.832-.046,10.23.167,20.726.752,31.144.617,10.992.745,18.617,2.823,28.3q-3-2.052-5.963-4.1l.093-.63s-.6-5.765-1.125-23.1c-.294-9.786-3.246-26.09-6.787-47.44m6.71,73.746q2.724,1.905,5.443,3.781a104.011,104.011,0,0,0-15.007,1.324q-2.6-2.692-5.225-5.433c9.349.056,13.643.262,14.79.328m-3.149-2.214a132.635,132.635,0,0,0-16.7-3.412c-.484-.51-.971-1.024-1.456-1.536,7.74.4,10.6.7,10.6.7l1.342-.166q3.108,2.225,6.211,4.41M643.765,275a132.228,132.228,0,0,0,4.99,18.152q-2.567-1.826-5.094-3.647c-.036-1.538-.09-5.88.1-14.5M642.3,291.861l.076-.019q2.765,2.013,5.527,3.995a110.378,110.378,0,0,0-13.942-3.731c6.033-.266,8.339-.244,8.339-.244m-5.728-32.9c.079-1.875.079-4,.013-6.351q.473,4.478,1.03,8.947c1.307,10.426,1.958,17.826,4.378,26.751q-3.187-2.3-6.319-4.6l.348-1.57s-.185-5.81.55-23.176m-1.815,27.291q2.664,1.974,5.324,3.923a102.752,102.752,0,0,0-10.279-1.83c-.514-.549-1.026-1.094-1.541-1.646,3.919-.185,5.488-.187,5.488-.187Zm-8.5-6.366q3.613,2.735,7.222,5.416c-2.794-.676-5.419-1.185-8-1.588q-1.67-1.8-3.346-3.613c2.7-.172,3.935-.21,4.12-.215m-8.121-6.05.165-.029q2.994,2.311,5.985,4.583c-1.512-.294-2.977-.54-4.42-.752q-1.777-1.932-3.561-3.884c1.277.047,1.831.084,1.831.084m-6.07-4.882c.025.072.047.141.071.213l.023-.139q2.048,1.6,4.094,3.192-.913-.263-1.8-.5-1.412-1.549-2.827-3.114l.443.348m-.757,1.987c-6.089-1.394-11.9-2.1-19.421-3.205-7.205-1.061-14.472-1.937-21.659-2.66l-.537-.681a185.984,185.984,0,0,0,20.439,2.742c10.445.516,16.351.971,19.207,1.227q.945,1.24,1.97,2.578m-9.38-10.035q2.225,1.789,4.451,3.558.622.823,1.291,1.705c-7.063-2.273-13.422-3.368-22.011-5.12-4.025-.82-8.072-1.582-12.117-2.292,2.692.347,5.089.586,7.168.692,14.4.734,20.17,1.338,21.217,1.456m-2.487-2c-7.546-2.558-14.126-3.684-23.192-5.547q-1.2-.247-2.4-.485c15.055,1.18,20.09,1.935,20.09,1.935l.421-.039q2.54,2.081,5.08,4.136m-8.973-26.359a114.934,114.934,0,0,0,5.125,20.268q-3.144-2.544-6.2-5.06c.037-1,.23-5.337,1.077-15.207m-2.041,17.325q1.941,1.614,3.882,3.213a97.581,97.581,0,0,0-9.826-3.145c4.238-.093,5.9-.058,5.9-.058ZM584.883,221.4c.4-2.884.655-6.42.828-10.55q.135,5.384.388,10.762c.467,9.806.562,16.707,2.108,25.168q-2.945-2.428-5.809-4.825c.166-1.943.746-7.926,2.485-20.554m-3.292,22.787c.035.185.065.364.1.551l.127-.4q2.513,2.124,5.026,4.22c-7.622-1.733-14.052-2.216-22.638-3.007,12.178-1.03,16.424-1.107,16.424-1.107ZM554,237.987c14.448-.675,19.28-.541,19.28-.541l.381-.087q3.553,3.065,7.107,6.076c-9.233-2.063-16.385-2.218-26.8-2.863-6.918-.428-13.878-.685-20.76-.808-31.868-5.1-60.36-7.089-71.641-7.73,43.968,1.365,77.533,6.648,92.434,5.952m-98.118-6.1,1.631.038c17.6,2.362,33.829,5.191,48.354,8-12.715.348-24.492,1.028-34.418,1.763-4.729-.165-7.406-.2-7.406-.2q2.074.22,4.121.451c-2.964.232-5.735.467-8.29.695q-2-5.319-3.992-10.744m-.793,12.334q2.068-.035,4.111-.058l.005.021c-1.507.085-2.85.166-4.017.239l-.1-.2m.308.619q2.019.025,4.013.06c1.434,5.037,3.265,11.327,5.475,18.641q-4.735-9.167-9.488-18.7M497,322.613c-6.2-10.9-12.587-22.371-19.077-34.392-5.7-13.73-11.468-28.179-17.19-43.3,15.622.3,30.089,1.009,43.129,1.833q9.088,1.421,17.393,2.871.318,1.165.677,2.467c-27.984-2.5-48.5-2.741-48.5-2.741,18.072,1.892,34.73,4.321,49.622,6.774q.787,2.812,1.717,6.066c-12.47-.377-23.285-.4-31.248-.309q-2.89-3.957-5.792-7.986s1.678,2.855,4.816,8c-5.547.068-9.594.185-11.7.256q-5.356-8.126-10.758-16.55s6.8,13.164,18.669,34.078c-4.748.517-7.906.913-9.068,1.063q-7.165-12.6-14.4-25.963s12.067,28.574,32.164,68.315l-.452-.476M566.349,441.99c9.56,14.115,16.165,24.61,25.748,35.63q-6.065-.574-12.049-1.235c-2.379-5.039-7.236-15.686-15.321-34.9-.777-1.846-1.672-3.817-2.666-5.9q2.129,3.212,4.287,6.4m-16.564-4.562c9.5,15.214,16.016,26.486,25.742,38.439q-10.906-1.271-21.537-2.82c-1.3-3.592-5.019-14.3-11.877-36.96-2.78-9.187-7.911-21.457-14.653-36.534,7.086,12.695,14.546,25.419,22.325,37.874M517.7,344.113c-11.177-17.8-23.121-37.4-35.321-58.673,4.872,6,16.312,19.909,32.335,38.28q5.161,8.44,10.79,17.382c-4.758,1.727-7.427,2.763-7.427,2.763q3.942-1.109,7.812-2.154c6.271,9.939,12.949,20.26,19.971,30.763-8.9-8.841-18.328-18.3-28.16-28.361m18.34-5.072q3.059-.784,6.066-1.531c4.341,6.216,8.882,12.621,13.6,19.155q.336.906.675,1.816-9.878-9.328-20.343-19.44m20.133-4.9q4.616-1.069,9.07-2.055,3.293.133,6.529.288l.719.6c-6.427.953-11.776,1.83-15.733,2.509l-.585-1.343m5.613,41.35q.921.97,1.849,1.945l.419,1.064-2.268-3.009m2.164-23.641q-3.379-7.617-6.907-15.711,9.061-.78,17.661-1.32,3.51,2.921,7.292,6.036,1.145,1.72,2.308,3.458c-12.724.946-20.476,1.786-20.476,1.786q11.051-.258,21.5-.257c4.771,7.107,9.764,14.409,14.951,21.831-8.172,1.275-12.915,2.15-12.915,2.15q4.005-.361,7.936-.676c-5.48,1.3-10.211,2.472-14.023,3.446q-8.292-9.861-17.329-20.743M581.959,373.4q10.317-1.762,20.091-3.2,2.608,3.714,5.28,7.463-2.613.73-5.016,1.419c-3.954.665-6.13,1.072-6.13,1.072q1.731-.155,3.45-.3c-3.74,1.083-7.032,2.063-9.8,2.9Q586,378.2,581.959,373.4m32.876,39.238c-7.092-8.654-15.293-18.376-24.367-29.137q7.141-1.549,14.03-2.929,2.269-.285,4.514-.557,4.78,6.674,9.742,13.414c-3.075.612-4.746.971-4.746.971q2.535-.3,5.041-.572c6.6,8.946,13.421,17.935,20.426,26.842-6.307,2.147-9.873,3.458-9.873,3.458q5.3-1.39,10.487-2.678,5.325,6.757,10.784,13.432c-4.438,1.644-7.59,2.86-9.2,3.487-7.162-7.318-16.228-15.894-26.842-25.731m26.94,25.832q4.937-1.422,9.78-2.757,2.147,2.618,4.312,5.217c.619.743,1.222,1.468,1.822,2.192-3.158,1.538-5.82,2.859-7.923,3.916-2.307-2.633-4.983-5.49-7.992-8.568m12.274,13.554q-1.531-1.784-3.164-3.7c-.239-.28-.491-.568-.739-.854q4.243-1.7,8.41-3.31,1.881,2.27,3.663,4.427c-3.494,1.444-6.254,2.612-8.169,3.432m8.685-21.43q-4.1-5.731-9.211-12.383,3.773-.88,7.471-1.712,5.184,5.556,10.477,11.059c-3.107,1.062-6.026,2.079-8.736,3.036M664,432.376q4.918-1.286,9.717-2.488,1.893,1.954,3.8,3.9-5.083,2.32-9.527,4.415-1.829-2.771-3.987-5.824m7.076,10.7q-.868-1.439-1.85-2.97,5.4-2.022,10.653-3.917,1.906,1.93,3.822,3.846c-4.244,1.634-8.158,3.173-11.691,4.585l-.934-1.545M673,446.258q6.6-2.046,12.986-3.94l.466.465c-6.841,2.017-11.434,3.455-13.138,3.994l-.315-.519m.35.577q7.114-1.637,14.025-3.129l.369.369c-5.4,1.818-9.888,3.384-13.282,4.589q-.547-.9-1.111-1.83m18.035,28.848c-2.921-4.448-8.208-12.707-16.567-26.433q7.305-1.938,14.391-3.706c7.857,7.883,14.454,14.584,21.654,20.943-8.518,3.9-15.2,7.107-19.478,9.2m9.417-32.967q3.445-.821,6.827-1.6c6.6,7,12.229,13.077,17.963,18.773q-4.676,2.052-8.911,3.962c-3.935-5.12-9.155-12.026-15.878-21.13m22.488,29.6c-1.246-1.565-2.852-3.606-4.859-6.2q5.037-1.807,9.939-3.513c1.686,1.624,3.4,3.224,5.158,4.811q-5.434,2.564-10.238,4.9m2.211,2.745-.569-.7q5.006-1.959,9.883-3.814-4.952,2.369-9.314,4.514m13.067-10.007q-.585-.8-1.22-1.675.851.726,1.712,1.446l-.492.229m-6.849-29.272q2.183-.462,4.33-.91,4.267,3.193,8.567,6.336c3.25,2.374,6.3,4.627,9.23,6.784q-2.173.876-4.3,1.745-1.96-1.643-4.06-3.411c-3.785-3.188-8.4-6.7-13.765-10.545m11.992,21.588c1.675,1.045,3.318,2.063,4.941,3.059q-1.793.811-3.544,1.61-1.482-1.863-3.211-4.061l1.814-.607m3.568,20.032-.933-2s-1.078-1.336-3.538-4.617l2.5-.946c2.959,2.279,6.08,4.545,9.449,6.835q-3.753.38-7.482.725m8.993-.876-1.18-2.3s-1.538-1.74-5.114-6.13q3.6-1.339,7.113-2.623c5.52,3.2,11.069,6.165,17.167,9.021q-9.057,1.112-17.985,2.032m28.979-3.445q-3.03.409-6.046.793c-2.3-1.77-6.8-5.288-14.147-11.288q3.115-1.118,6.15-2.193a204.211,204.211,0,0,0,17.479,10.62q-1.73,1.037-3.437,2.068m6.533-3.914c-2.3-2.109-6.266-5.814-12.311-11.679l2.257-.786c4.224,3.672,8.5,7.169,13.166,10.623-1.046.615-2.08,1.228-3.112,1.841m7.245-4.258c-2.255-2.684-5.251-6.3-9.094-11.042q3.8-1.307,7.428-2.546c2.56,3.356,5.193,6.631,8.042,9.922q-3.219,1.834-6.376,3.666m10.363-5.922c-1.4-2.632-3.133-5.931-5.225-9.99l3.1-1.058c2.248,2.849,4.525,5.625,6.913,8.381q-2.407,1.331-4.784,2.667m10.267-5.672c-1.3-2.353-2.767-5.046-4.424-8.115.954-.33,1.89-.654,2.815-.976,2.139,2.207,4.281,4.357,6.477,6.475q-2.446,1.3-4.868,2.616m-3.475-45.9q-.836-.935-1.7-1.89c3.416-1.306,6.1-2.3,8.156-3.052q1.35,1.646,2.708,3.286c-2.992.465-5.986,1.027-9.167,1.655m9.3-28.819q1.362,2.045,2.738,4.089c.257,1.73.539,3.439.862,5.157q-1.629-2.118-3.349-4.325-.12-2.2-.251-4.921m.263,39.905c3.066-.872,5.827-1.646,8.305-2.332q1.462,1.749,2.87,3.436c-2.646.755-5.39,1.565-8.33,2.425q-1.348-1.713-2.845-3.529m1.286,22.541q1.3-.471,2.561-.932c1.78,1.773,3.533,3.5,5.283,5.183q-1.823.931-3.636,1.874-1.924-2.78-4.208-6.125m6.083,24.358q2.757-1.216,5.385-2.382.684.549,1.381,1.1-3.391.654-6.765,1.283m14.132-2.732c-1.445.29-2.884.57-4.324.852l-.019-.045s-.432-.553-1.364-1.809q4.053-1.808,7.752-3.494,1.157.942,2.349,1.883-2.2,1.3-4.394,2.614m2.09-24.52q-3.264,1.556-6.511,3.162-1.71-2.307-3.617-4.9c2.99-1.221,5.634-2.388,7.9-3.51l.726-.36q1.956,2.265,3.909,4.458-1.179.567-2.406,1.153m1.863-18.4c.877-.383,1.687-.734,2.423-1.051l1.495,2.057q-1.42.367-2.831.761l-1.087-1.767m4.163,38.13q-.661-.848-1.429-1.841c4.044-1.886,7.709-3.66,10.959-5.333q.571.547,1.152,1.094-5.374,2.991-10.682,6.08m7.507-19.4-.052-.082c1.259-.848,2.457-1.652,3.579-2.4l.357.463c-1.263.655-2.554,1.328-3.885,2.021m4.709-18.216-.246-.475c.521-.224.762-.322.762-.322l1.772-1.289,1.216.49.668.863c-1.432.226-2.819.471-4.172.733m5.129.5q2.062,2.654,4.094,5.2c-1.8.624-3.533,1.274-5.237,1.953q-1.343-2.562-2.818-5.4c2.364-1.074,3.6-1.6,3.962-1.751m-2.68,28.833-.794-1.212q1.989-1.1,3.7-2.148l1.17-.715q.538.629,1.084,1.256-1.854,1.017-3.821,2.087c-.446.243-.892.488-1.338.732m3.439,25.016c3.413-3.82,5.908-6.542,7.617-8.378,4.294-2.057,8.171-3.978,11.592-5.776q1.326-.314,2.646-.633a222.907,222.907,0,0,0-21.855,14.787m21.839-10.807c2.137-2.169,3.089-3.08,3.089-3.08l1.235-1.943q2.79-.68,5.561-1.372c-3.425,2.092-6.687,4.213-9.885,6.394m6.5-15.836c2.248-1.492,4.262-2.816,6.07-3.995q.514.506,1.035,1.012c-2.328.939-4.673,1.932-7.1,2.982m4.444-14.262c.45-.307.664-.446.664-.446l.655-.716q4.37,1.566,8.614,3.041c-2.476.786-4.829,1.617-7.127,2.5q-1.275-1.975-2.805-4.375m6.361,9.831q-.558-.846-1.212-1.847c3.524-2.268,5.965-3.788,7.505-4.727q1.349,1.728,2.769,3.469c-3.154.961-6.126,1.993-9.061,3.106m4.076,2.724c2.835-1.677,5.011-2.937,6.618-3.853q.687.822,1.393,1.65-4.016,1.12-8.011,2.2m6.581,9.75c2.106-1.822,3.949-3.4,5.551-4.757q1.649-.448,3.291-.9c-3.012,1.8-5.9,3.667-8.842,5.656m2.339-17.2.812.272-.6.162-.208-.434m2.141,4.4c-.332-.669-.752-1.523-1.264-2.579.372-.2.548-.3.548-.3l.874-.754q2.95.983,5.825,1.921-3,.862-5.983,1.708m-3.656-9.866c.274-1.279.94-4.265,2.265-9.559,3.026,4.484,6.233,8.91,9.832,13.453q-6.083-1.917-12.1-3.893m14.93,1.352c.355-2.819.933-7.085,1.846-13.14q1.119,1.6,2.281,3.207a133.22,133.22,0,0,0,1.731,13.473c-.939.28-1.875.556-2.813.834l-1.214-.375c-.41-.876-1.015-2.184-1.832-4m9.547,11.7c-2.694,1.206-5.2,2.437-7.613,3.711l1.168-2.548q2.822-.8,5.622-1.612l1.007.309-.184.14m2.821-10.126c-1.48.451-2.953.892-4.429,1.336.122-1.541.318-3.8.628-6.943q1.833,2.35,3.814,4.746-.008.429-.013.861m.226-6.264c-.811-1.8-1.869-4.177-3.2-7.232.275-2.486.6-5.284.968-8.41q1.48,3.016,3.068,6.03c-.357,3.273-.65,6.425-.84,9.611m-.816-69.179q1.152,2.051,2.31,4.1c1.937,3.415,3.765,6.672,5.529,9.811q-.3,1.771-.584,3.548c-1.883-5.122-4.326-10.935-7.255-17.41,0-.015,0-.031,0-.046m3.509,43.955c-1.009-3.812-2.124-8.084-3.346-12.85,1.355,2.522,2.689,4.977,4.024,7.385q-.352,2.732-.678,5.466m4.177,39.192c-.672-.194-1.341-.391-2.012-.587q1.768-.526,3.529-1.054-.769.823-1.516,1.641m-3.519-8.806c.491-1.935,1.089-4.244,1.816-6.974q1.554,2.665,3.258,5.4c-1.7.532-3.384,1.052-5.074,1.573m6.153-5.913c-.557-1.852-1.349-4.549-2.391-8.248.535-1.946,1.113-4.031,1.743-6.279q.537-1.912,1.05-4.118l.253.414c-.352,6.559-.652,12.38-.655,18.23m1.811-77.975c-3.548-7.382-7.741-15.6-12.485-24.629q-.007-1.807-.011-3.64,6.2,13.45,12.781,26.845c-.095.474-.19.948-.284,1.423m.511,94.111.081-.21s.122-.936.472-3.1c.318-.564.537-.944.663-1.161q2.547-.777,5.075-1.56c.011,1.22.036,2.455.081,3.714q-1.357,1.682-2.667,3.362c-1.239-.346-2.47-.7-3.7-1.048m2.365-13.62c.572-3.084,1.277-6.773,2.142-11.148q1.165,1.715,2.388,3.446c-.169,2.15-.31,4.264-.414,6.378q-2.06.665-4.116,1.324m7.7,6.415.506-.158c-.213.248-.427.5-.637.744.043-.192.086-.386.131-.586m-4.653,19.923q1.338-2.81,2.51-5.245l1.524.421q-2.033,2.384-4.035,4.824m3.865-59.153q-.35,3.365-.666,6.73c-.285,3.052-.57,5.917-.836,8.66q-.623-1.638-1.318-3.485c.706-3.817,1.319-8.307,1.88-13.424q.468.762.94,1.519m-2.549-80.927q-.271,1.149-.543,2.312-6.533-11.08-14.143-23.723-2.295-4.755-4.694-9.719.067-2.9.15-5.855c6.133,12.241,12.552,24.624,19.23,36.985" transform="translate(0 -29.672)" fill="#dbe3ed"/>
  </g>
</svg>
