<svg xmlns="http://www.w3.org/2000/svg" xmlns:xlink="http://www.w3.org/1999/xlink" version="1.1" id="Layer_1" x="0px" y="0px" viewBox="0 0 2484 276" width="2484" height="276" xml:space="preserve"><style type="text/css">

    .pages{fill:url(#p_pages);}
    .icon{clip-path:url(#c_ribbon);}
    #pattern_transparency{fill:#cccccc;}
    #g_ribbondecs{clip-path:url(#c_ribbonshape);}
    
	.pagesheet{fill:url(#lg_pagesheet);stroke:#FFFFFF;stroke-width:2;}
	.pagecurl{fill:url(#lg_pagecurl);}
	.ribbonhighlight{fill:url(#lg_shine);}
    .shadow{filter:url(#shadow_blur);opacity:0.4;}
    
    .back-shadow{fill:#3E3E3E;}
    .back-stroke{fill:none;stroke:#AEB1BC;stroke-width:2;}

	.ribbonfrill{fill:url(#p_ribbonfrill);}
	.ribbonstitch{fill:url(#p_ribbonstitch);}
    .ribbonhighlightl{fill:#ff0000;}
    .r_ribbonfrill{fill:#ffffff;}
    .r_ribbonstitch{fill:#ffffff;}
    .r_ribbonstitchd{fill:#000000;}
    
    
    text{font-family:Arial;font-weight:bold;font-size:1.5em;fill:#ffffff;}
    text.shadow{fill: #666666;}	
    
    .office-0{fill:#4A973A;}
	.office-1{fill:#FFFFFF;}
	.office-2{fill:#C7E7CA;}
	.office-3{fill:#8ECF91;}
	.office-4{opacity:0.2;fill:#187235;}
	.office-5{clip-path:url(#SVGID_2_);}
	.office-6{fill:#CFE6D1;}
	.office-7{fill:#327051;}
	.office-8{fill:#88C544;}
	.office-9{fill:#1A3E8A;}
	.office-10{fill:#D9E9F8;}
	.office-11{fill:#6F92D2;}
	.office-12{opacity:0.2;fill:#0F49B0;}
	.office-13{fill:#D5E6F7;}
	.office-14{fill:#0E6BC8;}
	.office-15{fill:#E54916;}
	.office-16{fill:#FECBA4;}
	.office-17{fill:#FF9868;}
	.office-18{opacity:0.2;fill:#D91805;}
	.office-19{fill:#FF9E86;}
	.office-20{fill:#E45D18;}
    
</style><rect class="pages" width="100%" height="100%"/><defs><filter id="shadow_blur" x="0" y="0"><feGaussianBlur in="SourceGraphic" stdDeviation="3"/></filter><pattern id="p_ribbonfrill" width="3" height="3" patternUnits="userSpaceOnUse"><rect class="r_ribbonfrill" width="1.5" height="3" opacity="0.07"/></pattern><pattern id="p_ribbonstitch" width="6" height="30" patternUnits="userSpaceOnUse"><rect class="r_ribbonstitch" width="5" height="1" y="2.5" x="1.5" opacity="0.3"/><rect class="r_ribbonstitchd" width="5" height="1" y="2.5" x="1.5" opacity="0.15" transform="translate(-0.5,0.5)"/></pattern><pattern id="p_pages" width="276" height="276" patternUnits="userSpaceOnUse" patternTransform="translate(30,16)"><ellipse class="shadow" cx="105" cy="237" rx="105" ry="6"/><rect class="pagecurl" width="70" height="30" transform="rotate(-45) translate(-52,253)"/><path class="pagesheet" d="M158 237c4.4 0 8-3.6 8-8v-33c0-4.4 3.6-8 8-8l33 0c4.4 0 8-3.6 8-8V9c0-4.4-3.6-8-8-8H9C4.6 1 1 4.6 1 9v220c0 4.4 3.6 8 8 8H158z"/><rect class="shadow" width="160" height="20" transform="rotate(-45) translate(-80,47)"/></pattern><linearGradient id="lg_shine" gradientUnits="userSpaceOnUse" x1="0" y1="0" x2="10" y2="0"><stop offset="0" stop-opacity="0.5" stop-color="#000"/><stop offset="1" stop-opacity="0" stop-color="#fff"/></linearGradient><linearGradient id="lg_pagesheet" gradientUnits="userSpaceOnUse" x1="-2.1568" y1="8.8429" x2="193.6571" y2="204.6569"><stop offset="0.5" stop-color="#F1F1F5"/><stop offset="0.95" stop-color="#D9DAE2"/><stop offset="1" stop-color="#AFB2BD"/></linearGradient><linearGradient id="lg_pagecurl" gradientUnits="userSpaceOnUse" x1="0" y1="0" x2="0" y2="30"><stop offset="0" stop-color="#FFFFFF"/><stop offset="0.153" stop-color="#F5F6F8"/><stop offset="0.4098" stop-color="#DBDDE5"/><stop offset="0.42" stop-color="#DADCE4"/><stop offset="0.4763" stop-color="#DEE0E7"/><stop offset="0.66" stop-color="#E9EAEE"/><stop offset="0.7149" stop-color="#DEDFE5"/><stop offset="0.8116" stop-color="#C0C3CC"/><stop offset="0.86" stop-color="#AFB2BD"/></linearGradient><clipPath id="c_ribbon"><rect width="256" height="256" x="26" y="12"/></clipPath><clipPath id="c_ribbonshape"><rect width="144" height="36"/></clipPath><clipPath id="c_tuck"><rect width="18" height="4"/></clipPath><ellipse id="e_tuck" clip-path="url(#c_tuck)" cx="9" cy="4" rx="9" ry="4"/><g id="g_tucks"><use xlink:href="#e_tuck" transform="rotate(-90) translate(-120,26)"/><use xlink:href="#e_tuck" transform="translate(116,12)"/></g><g id="g_ribbondecs"><rect class="ribbonfrill" width="144" height="36"/><rect class="ribbonhighlight" width="10" height="70" transform="rotate(45) translate(25,-35) "/><rect class="ribbonhighlight" width="10" height="70" transform="rotate(135) translate(-76,-135) "/><rect class="ribbonstitch" width="144" height="36"/></g></defs><style type="text/css">
    .xlsx .ribbonback{fill:url(#lg_xlsx_ribbon);}
    .xlsx .tucks{fill:#296424;}    
</style><defs><linearGradient id="lg_xlsx_ribbon" gradientUnits="userSpaceOnUse" x1="0" y1="0" x2="144" y2="0"><stop offset="0.1" stop-color="#2d6d25"/><stop offset="0.3" stop-color="#44953f"/><stop offset="0.5" stop-color="#72c95f"/><stop offset="0.7" stop-color="#44953f"/><stop offset="0.9" stop-color="#2d6d25"/></linearGradient></defs><g class="icon xlsx"><g class="tucks"><use xlink:href="#g_tucks"/></g><g class="ribbon" transform="rotate(-45) translate(-62,62)"><rect class="ribbonback" width="144" height="36"/><use xlink:href="#g_ribbondecs"/><text class="shadow" x="72" y="28" text-anchor="middle">XLSX</text><text x="72.5" y="27.5" text-anchor="middle">XLSX</text></g><g class="pictogram" transform="translate(70,70)"><path class="office-0" d="M38.8 0L130 0v130H0V38.8C0 17.5 17.5 0 38.8 0z"/><path class="office-1" d="M39.4 3.2h87.4v123.5H3.2V39.4C3.2 19.5 19.5 3.2 39.4 3.2z"/><path class="office-2" d="M39.9 5.9h84.1v118.1H5.9V39.9C5.9 21.2 21.2 5.9 39.9 5.9z"/><path class="office-3" d="M6 76.9V124h118V36.1C75 37.3 32 53.2 6 76.9z"/><polygon class="office-4" points="11.5 124 121 124 130 99.3 130 71.2 40.5 40.4 "/><polygon class="office-1" points="6.7 124 116.2 124 132.7 76.2 34.8 42.4 "/><defs><rect id="SVGID_1_" x="8.3" y="44.6" width="114.5" height="82"/></defs><clipPath id="SVGID_2_"><use xlink:href="#SVGID_1_"/></clipPath><g class="office-5"><rect x="33.4" y="68.9" transform="matrix(-0.9397 -0.342 0.342 -0.9397 126.0092 166.0226)" class="office-6" width="88.5" height="5.9"/><rect x="28.7" y="81.8" transform="matrix(-0.9397 -0.342 0.342 -0.9397 112.5505 189.3312)" class="office-6" width="88.5" height="5.9"/><rect x="23.9" y="95" transform="matrix(-0.9397 -0.342 0.342 -0.9397 98.7375 213.2533)" class="office-6" width="88.5" height="5.9"/><rect x="19.3" y="107.6" transform="matrix(-0.9397 -0.342 0.342 -0.9397 85.4559 236.2553)" class="office-6" width="88.5" height="5.9"/><rect x="14.5" y="120.8" transform="matrix(-0.9397 -0.342 0.342 -0.9397 71.643 260.1774)" class="office-6" width="88.5" height="5.9"/><rect x="82.1" y="71.7" transform="matrix(0.9397 0.342 -0.342 0.9397 40.6847 -22.5568)" class="office-1" width="4.3" height="64.7"/><rect x="54.3" y="61.6" transform="matrix(0.9397 0.342 -0.342 0.9397 35.5321 -13.6331)" class="office-1" width="4.3" height="64.7"/></g><polygon class="office-1" points="14.6 95 63.1 23 81.5 23 42.6 82 52 82 52 95 "/><polygon class="office-1" points="18.3 23 65.8 95 85.2 95 37.2 23 "/><polygon class="office-7" points="12.4 95 61 23 79.3 23 40.5 82 50 82 50 95 "/><polygon class="office-8" points="16.2 23 63.7 95 83.1 95 35.1 23 "/></g></g><style type="text/css">    
    .pdf .ribbonback{fill:url(#lg_pdf_ribbon);}
    .pdf .tucks{fill:#a40515;}
    .pdf .flourish{fill:#ffffff;}
    .pdf .flourish-back{fill:#aa1a15;}
    #r_pdf_square1{fill:#aa1a15;}
    #r_pdf_square2{fill:#ffffff;}
    #r_pdf_square3{fill:url(#lg_pdf_square3);}
</style><defs><linearGradient id="lg_pdf_ribbon" gradientUnits="userSpaceOnUse" x1="0" y1="0" x2="144" y2="0"><stop offset="0.1" stop-color="#ac0014"/><stop offset="0.3" stop-color="#f94034"/><stop offset="0.5" stop-color="#ff5f54"/><stop offset="0.7" stop-color="#f94034"/><stop offset="0.9" stop-color="#ac0014"/></linearGradient><linearGradient id="lg_pdf_square3" gradientUnits="userSpaceOnUse" x1="0" y1="0" x2="132" y2="128"><stop offset="0" stop-color="#f94034"/><stop offset="0.77" stop-color="#bd051a"/></linearGradient><path id="p_pdf_flourish" d="M119 86.5c-0.2 2-0.7 2.9-1.3 3.1 0.7 0.2 1 0.9 0.3 2 -0.8 1.3-3.8 2.4-7.2 2C97.7 91.9 87 87.9 78.3 82.4c-16.6 0.8-35.1 2.9-46.2 5.9 -9.5 16.8-19.5 28.4-23.9 29.4 -0.3 0.1-0.6 0.2-0.8 0.2 -1.8 0.4-4.1-0.4-3.9-2.3 -0.3 0.3-0.6 0.5-1 0.5 -1-0.1-1.5-0.4-2-1.3 -0.8-1.3-0.5-2.5-0.5-2.6 0.2-4.3 11.6-19.1 22-20 0.2 0 0.4-0.1 0 0.1 -4.6 1.9-16.1 14.9-17.7 18.8 0 0.1-0.2 0.3-0.2 0.3 -0.6 1.3-0.8 1.8-0.2 3.3 0.2-0.3 0.5-0.6 0.9-0.7 2.3-0.6 3.8-2 6.6-4.8 0.1-0.1 0.2-0.2 0.3-0.3 6.1-5.8 25.7-38.1 35.4-69.7C43 25.2 42.6 12 43.7 4.9c0-0.1 0.8-2.8 2.4-3.8 2.9-1.9 5.7-0.8 6.3-0.3 2 1.9 2.1 4 1.7 7 -0.4 2.6-1.5 0.8-1.4-1.6 0.1-2.6-3.5-6-4.8-2 -0.3 1-0.5 3.8-0.5 4 0.1 4.6 0.2 12.8 2.2 22.4 1.6-6.7 2.7-13.2 3.1-19.4 0.1-1.8 1.3-0.8 1.3 0.1 0.5 8.9-0.5 18-2.3 27C55.7 51.6 64 66.1 80.8 77.3c14.2-0.4 26.6 0.9 33.2 2.8 2.7 0.8 4 2.3 4.4 3C119.1 84.6 119 86.3 119 86.5zM49.7 46.5C45.6 61.6 39.1 76 32.4 87.9c0.9-0.5 2.2-1.1 2.5-1.3 11.1-5.1 24.3-7.7 37-8.8C61.1 69 54 57.7 49.7 46.5zM117 89.5c-0.6-0.2-0.6-0.6-0.6-2.1 0.2-3.1-7.4-4.2-6.3-4 -2.3-0.4-5.8-1-10.3-1.2 -3.3-0.2-7-0.2-11-0.1 6.3 3.3 13.5 6.1 21.9 8.4 0.3 0.1 3.9 0.3 5.2-0.5C116.4 89.7 116.7 89.6 117 89.5 117.1 89.5 117 89.5 117 89.5z"/></defs><g class="icon pdf" transform="translate(276,0)"><g class="tucks"><use xlink:href="#g_tucks"/></g><g class="ribbon" transform="rotate(-45) translate(-62,62)"><rect class="ribbonback" width="144" height="36"/><use xlink:href="#g_ribbondecs"/><text class="shadow" x="72" y="28" text-anchor="middle">PDF</text><text x="72.5" y="27.5" text-anchor="middle">PDF</text></g><g class="pictogram" transform="translate(71,71)"><rect id="r_pdf_square1" width="132" height="128"/><rect id="r_pdf_square2" width="132" height="128" x="2" y="2"/><rect id="r_pdf_square3" width="130" height="126" x="1" y="1"/><use class="flourish-back" xlink:href="#p_pdf_flourish" transform="translate(5,4)"/><use class="flourish" xlink:href="#p_pdf_flourish" transform="translate(6,5)"/></g></g><style type="text/css">    
    .docx .ribbonback{fill:url(#lg_docx_ribbon);}
    .docx .tucks{fill:#00527c;}
</style><defs><linearGradient id="lg_docx_ribbon" gradientUnits="userSpaceOnUse" x1="0" y1="0" x2="144" y2="0"><stop offset="0.1" stop-color="#005d8f"/><stop offset="0.3" stop-color="#0093ce"/><stop offset="0.5" stop-color="#56c0e9"/><stop offset="0.7" stop-color="#0093ce"/><stop offset="0.9" stop-color="#005d8f"/></linearGradient></defs><g class="icon docx" transform="translate(552,0)"><g class="tucks"><use xlink:href="#g_tucks"/></g><g class="ribbon" transform="rotate(-45) translate(-62,62)"><rect class="ribbonback" width="144" height="36"/><use xlink:href="#g_ribbondecs"/><text class="shadow" x="72" y="28" text-anchor="middle">DOCX</text><text x="72.5" y="27.5" text-anchor="middle">DOCX</text></g><g class="pictogram" transform="translate(70,70)"><path class="office-9" d="M38.8 0L130 0v130H0V38.8C0 17.5 17.5 0 38.8 0z"/><path class="office-1" d="M39.4 3.2h87.4v123.5H3.2V39.4C3.2 19.5 19.5 3.2 39.4 3.2z"/><path class="office-10" d="M39.9 5.9h84.1v118.1H5.9V39.9C5.9 21.2 21.2 5.9 39.9 5.9z"/><path class="office-11" d="M6 76.9V124h118V36.1C75 37.3 32 53.2 6 76.9z"/><polygon class="office-12" points="11.5 124 121 124 130 99.3 130 71.2 40.5 40.4 "/><polygon class="office-1" points="6.7 124 116.2 124 132.7 76.2 34.8 42.4 "/><rect x="25.9" y="89.7" transform="matrix(-0.9397 -0.342 0.342 -0.9397 102.6866 200.7897)" class="office-13" width="86.3" height="3.2"/><rect x="21" y="103.7" transform="matrix(-0.9397 -0.342 0.342 -0.9397 88.4731 226.3332)" class="office-13" width="86.3" height="3.2"/><polygon class="office-13" points="17.4 104.8 16.3 107.8 60.8 124 70.2 124 "/><polygon class="office-1" points="34.5 23 42.6 68.9 53.9 23 68.5 23 78.2 69.1 85.2 37 79 37 79 23 103 23 85.2 95 70.1 95 60.4 51.8 50.2 95 34.5 95 19.4 23 "/><polygon class="office-14" points="32.4 23 40.5 68.9 51.8 23 66.3 23 76.1 69.1 83.1 37 77 37 77 23 100.9 23 83.1 95 68 95 58.3 51.8 48 95 32.4 95 17.3 23 "/></g></g><style type="text/css">    
    .pptx .ribbonback{fill:url(#lg_pptx_ribbon);}
    .pptx .tucks{fill:#cc3405;}
</style><defs><linearGradient id="lg_pptx_ribbon" gradientUnits="userSpaceOnUse" x1="0" y1="0" x2="144" y2="0"><stop offset="0.1" stop-color="#ce2c03"/><stop offset="0.3" stop-color="#f4641e"/><stop offset="0.5" stop-color="#fd8b52"/><stop offset="0.7" stop-color="#f4641e"/><stop offset="0.9" stop-color="#ce2c03"/></linearGradient></defs><g class="icon pptx" transform="translate(828,0)"><g class="tucks"><use xlink:href="#g_tucks"/></g><g class="ribbon" transform="rotate(-45) translate(-62,62)"><rect class="ribbonback" width="144" height="36"/><use xlink:href="#g_ribbondecs"/><text class="shadow" x="72" y="28" text-anchor="middle">PPTX</text><text x="72.5" y="27.5" text-anchor="middle">PPTX</text></g><g class="pictogram" transform="translate(70,70)"><path class="office-15" d="M38.8 0L130 0v130H0V38.8C0 17.5 17.5 0 38.8 0z"/><path class="office-1" d="M39.4 3.2h87.4v123.5H3.2V39.4C3.2 19.5 19.5 3.2 39.4 3.2z"/><path class="office-16" d="M39.9 5.9h84.1v118.1H5.9V39.9C5.9 21.2 21.2 5.9 39.9 5.9z"/><path class="office-17" d="M6 76.9V124h118V36.1C75 37.3 32 53.2 6 76.9z"/><polygon class="office-18" points="15.3 112.9 121 124 130 99.3 130 71.2 40.5 40.4 "/><polygon class="office-1" points="132.7 76.2 34.8 42.4 11 111.4 47.8 124 116.2 124 "/><rect x="65.3" y="105.3" transform="matrix(0.9397 0.3421 -0.3421 0.9397 41.332 -20.5017)" class="office-19" width="27" height="3.2"/><rect x="62.5" y="112.9" transform="matrix(0.9397 0.3421 -0.3421 0.9397 43.7658 -19.0964)" class="office-19" width="27" height="3.2"/><rect x="57.7" y="98.5" transform="matrix(0.9397 0.3421 -0.3421 0.9397 37.8654 -14.4984)" class="office-19" width="4.7" height="3.2"/><rect x="54.9" y="106.1" transform="matrix(0.9397 0.3421 -0.3421 0.9397 40.2992 -13.093)" class="office-19" width="4.7" height="3.2"/><path class="office-15" d="M89.6 70.8c-10.5-3.8-21.1-1.2-23.7 5.9 -2.6 7.1 3.8 15.9 14.4 19.8s21.1 1.2 23.7-5.9C106.5 83.5 100.1 74.7 89.6 70.8zM84.9 83.7l6.3-10.5c7.8 3.6 12.4 10.4 10.7 16.1L84.9 83.7z"/><path class="office-1" d="M47.5 22H24v13h8v61h15V71.2c23 0 33.7-6.9 33.7-25.1C80.7 25.3 64 22 47.5 22zM47 58.3V35.1c0 0 17.7-1.8 17.7 11.9S47 58.3 47 58.3z"/><path class="office-20" d="M45.3 22H22v13h8v61h15V71.2c23 0 33.6-6.9 33.6-25.1C78.6 25.3 61.9 22 45.3 22zM45 58.3V35.1c0 0 17.7-1.8 17.7 11.9S45 58.3 45 58.3z"/></g></g><style type="text/css">    
    .image .ribbonback{fill:url(#lg_image_ribbon);}
    .image .flourish{fill:url(#lg_image_picto);}
    .image .tucks{fill:#77395f;}
</style><defs><linearGradient id="lg_image_ribbon" gradientUnits="userSpaceOnUse" x1="0" y1="0" x2="144" y2="0"><stop offset="0.1" stop-color="#842d62"/><stop offset="0.3" stop-color="#b55686"/><stop offset="0.5" stop-color="#df83b0"/><stop offset="0.7" stop-color="#b55686"/><stop offset="0.9" stop-color="#842d62"/></linearGradient><linearGradient id="lg_image_picto" gradientUnits="userSpaceOnUse" x1="0" y1="0" x2="132" y2="128"><stop offset="0" stop-color="#c66392"/><stop offset="0.77" stop-color="#69174f"/></linearGradient><path id="p_image_picto" d="M127.1 100H11.7C5.1 100 0 95.1 0 88.6V20.9c0-6.5 7.8-11 14.4-11H22h1.7 33.2c0.5 0 1 0 1.4 0 29.2 0 68.9 0 68.9 0 6.5 0 10.8 4.8 10.8 11.3v67.4C138 95.1 133.6 100 127.1 100zM37.4 17.9c-3.7 0-6.7 3-6.7 6.7 0 3.7 3 6.7 6.7 6.7 3.7 0 6.7-3 6.7-6.7C44 20.9 41 17.9 37.4 17.9zM69.5 32.9C52.1 32.9 38 47 38 64.4 38 81.9 52.1 96 69.5 96 86.9 96 101 81.9 101 64.4 101 47 86.9 32.9 69.5 32.9zM128.6 31.3v-7.5c0-2.6-2.1-4.7-4.7-4.7h-21.7c-2.6 0-2.4-0.2-2.4 2.4v7.5c0 2.6 2.1 4.4 4.7 4.4h21.7C128.9 33.3 128.6 33.9 128.6 31.3zM69.5 91C54.9 91 43 79.1 43 64.4c0-14.7 11.9-26.5 26.5-26.5C84.2 37.9 96 49.8 96 64.4 96 79.1 84.2 91 69.5 91zM69.5 42.9C57.6 42.9 48 52.6 48 64.4 48 76.3 57.6 86 69.5 86 81.4 86 91 76.3 91 64.4 91 52.6 81.4 42.9 69.5 42.9zM69.5 81C60.4 81 53 73.6 53 64.4c0-9.1 7.4-16.5 16.5-16.5 9.1 0 16.5 7.4 16.5 16.5C86 73.6 78.6 81 69.5 81zM23.7 7.9l0-3.1c0-2.6 2.8-4.7 5.4-4.7h23.1C54.9 0 57 2.1 57 4.7l0 3.1H23.7z"/></defs><g class="icon image" transform="translate(1104,0)"><g class="tucks"><use xlink:href="#g_tucks"/></g><g class="ribbon" transform="rotate(-45) translate(-62,62)"><rect class="ribbonback" width="144" height="36"/><use xlink:href="#g_ribbondecs"/><text class="shadow" x="72" y="28" text-anchor="middle">IMAGE</text><text x="72.5" y="27.5" text-anchor="middle">IMAGE</text></g><g class="pictogram" transform="translate(68,83)"><use class="back-shadow" xlink:href="#p_image_picto" transform="translate(0,1)"/><use class="flourish" xlink:href="#p_image_picto"/></g></g><style type="text/css">    
    .txt .ribbonback{fill:url(#lg_txt_ribbon);}
    .txt .tucks{fill:#0f6db5;}
    .txt .light{fill:#0CA0F5;}    
    .txt .r_txt_lines{fill:url(#p_txt_lines);}
    .txt .r_txt_lines{clip-path:url(#c_txt_clip);}
    .p_txt_line{fill:#1356a0;}
    
</style><defs><linearGradient id="lg_txt_ribbon" gradientUnits="userSpaceOnUse" x1="0" y1="0" x2="144" y2="0"><stop offset="0.1" stop-color="#1356a0"/><stop offset="0.3" stop-color="#098cf0"/><stop offset="0.5" stop-color="#0cb6f5"/><stop offset="0.7" stop-color="#098cf0"/><stop offset="0.9" stop-color="#1356a0"/></linearGradient><pattern id="p_txt_lines" width="156" height="14" patternUnits="userSpaceOnUse"><rect class="p_txt_line" width="156" height="1" y="0" x="0"/></pattern><clipPath id="c_txt_clip"><polygon points="60 0 60 60 0 60 0 156 135 156 135 142 156 142 156 0"/></clipPath></defs><g class="icon txt" transform="translate(1380,0)"><g class="tucks"><use xlink:href="#g_tucks"/></g><g class="ribbon" transform="rotate(-45) translate(-62,62)"><rect class="ribbonback" width="144" height="36"/><use xlink:href="#g_ribbondecs"/><text class="shadow" x="72" y="28" text-anchor="middle">TXT</text><text x="72.5" y="27.5" text-anchor="middle">TXT</text></g><g class="pictogram" transform="translate(59,59)"><path class="light" d="M39.4 39H21.9l-3.5 4.3 -4 4.7c-0.8 1-1.3 1.9-1.7 2.8 -1.3 3 1.4 4.5 4.2 4.7V57H0l0.4-1.5c1.5-0.2 2.8-0.8 4-1.6 1.6-1.1 3.8-3.4 6.7-6.8L51.2 0H53l-1.9 45.6C51 49.7 50.4 55 56 55.5L55.6 57H31.1l0.5-1.5c2.4-0.2 3.8-0.4 4.2-0.6 2.6-2.2 3.7-5.1 3.3-8.8L39.4 39zM39.4 35.7l1.1-18.2L24.8 35.7H39.4z"/><rect class="r_txt_lines" width="156" height="156"/></g></g><style type="text/css">    
    .zip .ribbonback{fill:url(#lg_zip_ribbon);}
    .zip .tucks{fill:#0b7975;}
    .zip .tab{fill:#1eaaa6;stroke:#FFFFFF;stroke-width:2;}
    .zip .r_zip_base,.zip .slot{fill:#088380;}
    #p_zip_track{fill:#0e8d89;}
    .zip .r_zip_track{fill:url(#p_zip_track);}
</style><defs><linearGradient id="lg_zip_ribbon" gradientUnits="userSpaceOnUse" x1="0" y1="0" x2="144" y2="0"><stop offset="0.1" stop-color="#07847f"/><stop offset="0.3" stop-color="#30c9c4"/><stop offset="0.5" stop-color="#44ebe6"/><stop offset="0.7" stop-color="#30c9c4"/><stop offset="0.9" stop-color="#07847f"/></linearGradient><pattern id="p_zip_track" width="20" height="12" patternUnits="userSpaceOnUse"><rect width="11" height="4" x="0" y="1"/><rect width="11" height="4" x="6" y="7"/><circle r="3" cx="11" cy="3"/><circle r="3" cx="6" cy="9"/></pattern></defs><g class="icon zip" transform="translate(1656,0)"><g class="tucks"><use xlink:href="#g_tucks"/></g><g class="ribbon" transform="rotate(-45) translate(-62,62)"><rect class="ribbonback" width="144" height="36"/><use xlink:href="#g_ribbondecs"/><text class="shadow" x="72" y="28" text-anchor="middle">ZIP</text><text x="72.5" y="27.5" text-anchor="middle">ZIP</text></g><g class="pictogram" transform="translate(30,17)"><rect class="r_zip_track" width="17" height="211" transform="translate(99,1)"/><path class="r_zip_base" transform="translate(90,218)" d="M36 17H1c-0.6 0-1-0.5-1-1V1c0-0.6 0.4-1 1-1h35c0.5 0 1 0.4 1 1v15C37 16.5 36.5 17 36 17z"/><path class="slot" transform="translate(98,211)" d="M10 6H0V1c0-0.6 0.4-1 1-1h8c0.6 0 1 0.4 1 1V6z"/><path class="slot" transform="translate(109,211)" d="M10 6H0V1c0-0.6 0.4-1 1-1h8c0.6 0 1 0.4 1 1V6z"/><path class="tab" transform="translate(90,70)" d="M31 30l-2-2 5-8c0 0 0-9.8 0-14S24 0 18 0 2 1.8 2 6s0 14 0 14l5 8 -2 2c0 0 1.5 16.5-5 61 0 0 7.4 7 18 7s18-7 18-7C29.5 46.5 31 30 31 30zM28 85c0 5-5 6-10 6S8 90 8 85v-8h20V85z"/></g></g><style type="text/css">    
    .file .ribbonback{fill:url(#lg_file_ribbon);}
    .file .tucks{fill:#235e03;}
    .file .r_file_lines{fill:url(#p_file_lines);}
    .file .r_file_lines{clip-path:url(#c_file_clip);}
    .p_file_line{fill:#50880a;}
</style><defs><linearGradient id="lg_file_ribbon" gradientUnits="userSpaceOnUse" x1="0" y1="0" x2="144" y2="0"><stop offset="0.1" stop-color="#306c04"/><stop offset="0.3" stop-color="#65990d"/><stop offset="0.5" stop-color="#99c616"/><stop offset="0.7" stop-color="#65990d"/><stop offset="0.9" stop-color="#306c04"/></linearGradient><pattern id="p_file_lines" width="156" height="14" patternUnits="userSpaceOnUse"><rect class="p_file_line" width="156" height="1" y="0" x="0"/></pattern><clipPath id="c_file_clip"><polygon points="20 0 0 20 0 156 135 156 135 142 156 142 156 0 "/></clipPath></defs><g class="icon file" transform="translate(1932,0)"><g class="tucks"><use xlink:href="#g_tucks"/></g><g class="ribbon" transform="rotate(-45) translate(-62,62)"><rect class="ribbonback" width="144" height="36"/><use xlink:href="#g_ribbondecs"/><text class="shadow" x="72" y="28" text-anchor="middle">FILE</text><text x="72.5" y="27.5" text-anchor="middle">FILE</text></g><g class="pictogram" transform="translate(59,59)"><rect class="r_file_lines" width="156" height="156"/></g></g><style type="text/css">    
    .url .ribbonback{fill:url(#lg_url_ribbon);}
    .url .tucks{fill:#394655;}
    .url .r_url_lines{fill:url(#p_url_lines);}
    .url .r_url_lines{clip-path:url(#c_url_clip);}
    .p_url_line{fill:#5a708c;}
    .r_url_picto{fill-rule:evenodd;clip-rule:evenodd;fill:url(#lg_url_picto);}
</style><defs><linearGradient id="lg_url_ribbon" gradientUnits="userSpaceOnUse" x1="0" y1="0" x2="144" y2="0"><stop offset="0.1" stop-color="#3b4758"/><stop offset="0.3" stop-color="#5f7795"/><stop offset="0.5" stop-color="#829dbe"/><stop offset="0.7" stop-color="#5f7795"/><stop offset="0.9" stop-color="#3b4758"/></linearGradient><linearGradient id="lg_url_picto" gradientUnits="userSpaceOnUse" x1="0" y1="0" x2="132" y2="128"><stop offset="0" stop-color="#6f8bae"/><stop offset="0.77" stop-color="#2b333d"/></linearGradient><pattern id="p_url_lines" width="156" height="14" patternUnits="userSpaceOnUse"><rect class="p_url_line" width="156" height="1" y="0" x="0"/></pattern><clipPath id="c_url_clip"><path class="st0" d="M20 0L0 20v136h135v-14h21V0H20zM78.9 131c-29.5 0.5-53.9-23-54.4-52.6C24 48.9 47.5 24.5 77.1 24c29.5-0.5 53.9 23 54.4 52.6C132 106.1 108.5 130.5 78.9 131z"/></clipPath></defs><g class="icon url" transform="translate(2208,0)"><g class="tucks"><use xlink:href="#g_tucks"/></g><g class="ribbon" transform="rotate(-45) translate(-62,62)"><rect class="ribbonback" width="144" height="36"/><use xlink:href="#g_ribbondecs"/><text class="shadow" x="72" y="28" text-anchor="middle">URL</text><text x="72.5" y="27.5" text-anchor="middle">URL</text></g><g class="pictogram" transform="translate(59,59)"><rect class="r_url_lines" width="156" height="156"/><path class="r_url_picto" transform="translate(37,37)" d="M42 0C18.8 0 0 18.8 0 42s18.8 42 42 42 42-18.8 42-42S65.2 0 42 0zM39 2.2c1.4 0 5.2-0.8 6.4 0.4 -2.6 0.2-4.3 1.3-6.7 1.4C38.3 3.2 38.4 2.6 39 2.2zM23.7 69c-1.1-2.3-1.2-3.9-1.7-6.7 -0.7-4.5-1.6-9.2-4.3-12.7 -2.9-3.7-6.5-7.2-5.1-12 0.2-0.7 2.1-2.5 2.1-3.3 -0.1-2.6-3.4-2.6-4.7-5.6 -9.2 0.1 3.3-14.9 5.7-16.8 1.2-1 20.2-11.2 20.2-9.1 0.1 0-3.1 1-3.4 1 0.1 0.7 1.8 3.8 2.4 3.8 -1.1 0-3-0.1-5 0 0.1 1.4-0.1 0.9-0.3 1.4 -5.7 0.1-11.1 6.7-14.1 11.2 0.1-0.7 0.1-1.4-0.2-2.2 -3.7 0.6-6.5 4.1-6.7 7.8 2.4 0 1.7-2.8 3.5-2.8 -0.3 1.2-0.6 2.5-1.1 3.7 3.2 0.8-1.2 4.4 3.1 4.3 1.7 0 1.4-1.8 2.7-2.1 2.4-0.6 4.7 1.2 7.7-0.3 0 4.7 4.3 2.1 5.9 3.2 1.3 0.9 1.1 2.2 2 2.9 3.6 2.9 12.3 3.6 11.2 8.8 -0.3 1.1-2.1 1.6-2.5 2.6 -0.5 1.3-0.2 2.8-0.8 4.1 -1.5 3.3-4 4.4-6 7.2 -1.4 1.9-1.3 3.2-3.2 5 -1.3 1.3-7.3 10.9-0.9 10.9 -1.7 1.3-2 0.1-4-0.5C25.8 71.3 24.3 70.2 23.7 69zM28.2 78.8c1.5 0 7.2 3.2 5.6-1 0 0 0 0-0.1 0 0 0 0 0 0 0 0 0 0 0 0 0 1.2 0.4 0.8 0.3 1.4 1.4 3.3 0 7.5 3.1 10.5 0.7 1.4 0 7.6-1.2 7.6 0.4C53.2 82.7 29.5 83.2 28.2 78.8zM53.6 5.7c0.3 0.1 0.4 0 0.3-0.3 1.6 0.3 3.8 0.9 4.3 2.5 -1.4-0.2-2.7-0.5-3.5-0.7C53.8 6.7 53.7 6.5 53.6 5.7zM78.4 57.1c-2.3 3.4-4.1 5.8-7.8 6.7 0.5-3.1 1.8-6.1 2.2-8.2 0.3-1.7-0.3-3.5 0-5.9 0 0.2 1.7-2.5 1.7-2.8 0.2-1.3-0.5-7.2-1-8.2 -1.3-2.6-1.8-4.7-5.1-5.3 -1.4-0.3-3.6 1.4-5 0.9 -1.8-0.5-5.9-5.1-6.6-7 -1.2-3.3-0.9-5.8 0.2-8.4 3.9-9.6 10.9-1.5 17.3 0.2 0-0.1 0-0.2-0.1-0.3 -0.7-0.8-1.4-1.6-2.1-2.4 -1.5-1.4-3.4-2.7-4.1-2.9 0 0.5 0.5 0.8 0.6 1.4 -0.8-0.2-2.9-2.8-3.4-3.2 0 1.1 0.1 0.7 0.5 1.6 -2.2 0-4.3-6.1-4 0.2 -3 0.1-4.1-0.9-4.8-3.7 1.8 0 0.9 0.7 2.7 0.7 0-2.9-1.7-4.6-4.2-5.6 -2-0.7-7.3-0.8-8.5-2.3 2.8 0 7.9 1.1 9.4 2.3C58 5 59.9 6.4 61 7.1c0.6 0.4 1.7 1.4 2.8 1.4 2.7 2.6 5.6 5.2 8.2 8 1 0.9 1.9 1.8 2.1 2.4 1.1 1.3 2.1 2.8 2.9 4.3 4 7.3 5.7 18 3.9 28.7C79.1 51.8 79 56.2 78.4 57.1z"/></g></g></svg>