<svg width="400" height="400" viewBox="0 0 400 400" fill="none" xmlns="http://www.w3.org/2000/svg">
  <path fill-rule="evenodd" clip-rule="evenodd" d="M86 149V151.4H89.97C89.81 152.43 88.77 154.42 86 154.42C83.61 154.42 81.66 152.44 81.66 150C81.66 147.56 83.61 145.58 86 145.58C87.36 145.58 88.27 146.16 88.79 146.66L90.69 144.83C89.47 143.69 87.89 143 86 143C82.13 143 79 146.13 79 150C79 153.87 82.13 157 86 157C90.04 157 92.72 154.16 92.72 150.16C92.72 149.7 92.67 149.35 92.61 149H86ZM101 149H99V147H97V149H95V151H97V153H99V151H101V149Z" fill="white"/>
  <path fill-rule="evenodd" clip-rule="evenodd" d="M220.099 100.081H215.914V93.5307C215.914 91.9707 215.887 89.9607 213.739 89.9607C211.559 89.9607 211.229 91.6607 211.229 93.4207V100.081H207.047V86.6127H211.059V88.4527H211.117C211.675 87.3947 213.041 86.2787 215.077 86.2787C219.317 86.2787 220.099 89.0687 220.099 92.6957V100.082V100.081ZM202.329 84.7727C201.685 84.7727 201.068 84.517 200.612 84.0617C200.157 83.6065 199.901 82.989 199.901 82.3452C199.901 81.7014 200.157 81.084 200.612 80.6287C201.068 80.1735 201.685 79.9177 202.329 79.9177C202.973 79.9177 203.59 80.1735 204.045 80.6287C204.501 81.084 204.756 81.7014 204.756 82.3452C204.756 82.989 204.501 83.6065 204.045 84.0617C203.59 84.517 202.973 84.7727 202.329 84.7727ZM200.231 86.6127H204.421V100.081H200.231V86.6127Z" fill="white"/>
  <path fill-rule="evenodd" clip-rule="evenodd" d="M154.002 155.383H145.978C145.524 155.383 145.089 155.202 144.767 154.881C144.446 154.56 144.266 154.125 144.266 153.67C144.266 153.216 144.446 152.781 144.767 152.459C145.089 152.138 145.524 151.958 145.978 151.958H154.002C154.457 151.958 154.892 152.138 155.213 152.459C155.534 152.781 155.715 153.216 155.715 153.67C155.715 154.125 155.534 154.56 155.213 154.881C154.892 155.202 154.457 155.383 154.002 155.383ZM146.46 144.113L150.472 144.176C150.926 144.183 151.359 144.37 151.675 144.696C151.991 145.023 152.164 145.461 152.157 145.915C152.15 146.369 151.963 146.802 151.637 147.118C151.311 147.434 150.872 147.607 150.418 147.6L146.406 147.536C145.952 147.529 145.52 147.341 145.204 147.015C144.888 146.689 144.714 146.251 144.721 145.797C144.729 145.343 144.916 144.91 145.242 144.594C145.568 144.278 146.006 144.106 146.46 144.113ZM159.86 153.517C159.853 153.143 159.852 152.807 159.85 152.503C159.844 150.923 159.838 149.673 158.834 148.7C158.118 148.006 157.269 147.786 155.979 147.738C156.155 146.991 156.205 146.163 156.124 145.268C156.104 142.295 153.89 140.088 150.82 140.004H150.777L146.085 140.076C144.241 140.069 142.785 140.606 141.753 141.682C141.115 142.348 140.391 143.512 140.303 145.402H140.298V145.459C140.293 145.59 140.291 145.721 140.292 145.852L140.172 152.977C140.164 153.12 140.157 153.265 140.156 153.414C140.036 155.502 140.528 157.142 141.619 158.29C142.697 159.422 144.283 159.996 146.334 159.996H153.654C155.494 159.979 157.047 159.372 158.148 158.239C159.248 157.107 159.84 155.496 159.861 153.579V153.519L159.86 153.517Z" fill="white"/>
  <path d="M40.1048 211.226C40.1868 212.506 40.0448 213.77 39.8748 215.036C39.7048 216.329 39.4908 217.616 39.1468 218.876C38.9268 219.682 38.6388 220.462 38.2388 221.198C37.7488 222.098 37.0038 222.61 35.9788 222.651C35.0168 222.691 34.0488 222.706 33.0848 222.678C32.6048 222.665 32.1198 222.568 31.6488 222.454C30.7488 222.236 30.2428 221.624 30.0938 220.724C29.9532 219.907 29.9634 219.072 30.1238 218.259C30.3138 217.329 30.8718 216.779 31.8108 216.671C32.4278 216.603 33.0568 216.613 33.6808 216.589C33.8358 216.584 33.8888 216.663 33.8338 216.806C33.6858 217.206 33.6558 217.614 33.7598 218.032C33.7998 218.188 33.7428 218.264 33.5638 218.262C33.2805 218.255 32.9971 218.268 32.7158 218.302C32.2358 218.367 31.9908 218.658 31.9908 219.142C31.9908 219.297 32.0108 219.456 32.0408 219.612C32.1188 219.995 32.3808 220.2 32.7538 220.244C33.6018 220.34 34.4508 220.348 35.2988 220.206C35.8088 220.12 36.1148 219.798 36.1738 219.294C36.2888 218.319 36.2908 217.34 36.0018 216.39C35.7518 215.565 35.2418 215.208 34.3898 215.107C33.5398 215.007 32.6948 214.854 31.8528 214.699C31.0528 214.553 30.5758 214.029 30.4028 213.256C30.3048 212.824 30.2968 212.373 30.2408 211.929C30.2308 211.849 30.1848 211.772 30.1568 211.695C30.1268 211.777 30.0768 211.855 30.0688 211.941C30.0188 212.454 30.0288 212.978 29.9288 213.481C29.8088 214.078 29.6238 214.664 29.4228 215.241C29.2828 215.645 28.9578 215.873 28.5128 215.837C26.6908 215.67 24.8892 215.327 23.1328 214.815C22.9728 214.765 22.8128 214.705 22.6498 214.659C21.9498 214.462 21.5268 213.977 21.3358 213.309C21.0608 212.349 20.7958 211.379 20.5888 210.399C20.3618 209.329 20.1928 208.245 20.0288 207.159C19.9418 206.589 19.8848 206.009 19.9658 205.427C20.0818 204.587 20.6558 203.99 21.5058 203.944C22.3998 203.894 23.2958 203.912 24.1928 203.897C24.2888 203.897 24.3848 203.899 24.4748 203.877C24.6946 203.837 24.8927 203.719 25.0328 203.545C25.173 203.371 25.2457 203.152 25.2378 202.929C25.2308 202.163 25.2238 201.399 25.2008 200.636C25.1648 199.446 25.8048 198.838 26.8288 198.656C28.063 198.429 29.3333 198.496 30.5368 198.852C31.2418 199.06 31.6448 199.549 31.8318 200.234C31.8758 200.401 31.9418 200.454 32.1118 200.451C32.7618 200.443 33.4148 200.414 34.0618 200.459C34.9048 200.519 35.7448 200.621 36.5788 200.739C37.0968 200.811 37.6088 200.927 38.1138 201.056C38.9938 201.281 39.4678 201.896 39.5958 202.76C39.7188 203.6 39.8058 204.447 39.8658 205.294C39.9658 206.697 40.0358 208.102 40.0998 209.506C40.1298 210.076 40.1068 210.652 40.1068 211.226H40.1048ZM36.6808 210.354C36.6658 209.851 36.6288 209.397 36.3458 209.007C35.9158 208.42 34.9828 208.365 34.4808 208.894C34.2058 209.188 34.1078 209.559 34.0548 209.944C34.0488 209.97 34.1348 210.039 34.1748 210.039C34.3768 210.033 34.5778 209.997 34.7798 209.999C35.3598 210.004 35.9298 210.084 36.4798 210.296C36.5298 210.316 36.5828 210.326 36.6798 210.354H36.6808Z" fill="white"/>
  <path d="M23.8371 197.347C23.6823 197.728 23.6107 198.138 23.6271 198.549C23.6421 199.287 23.6511 200.027 23.6641 200.765C23.6681 201.035 23.6071 201.105 23.3371 201.105C22.5721 201.115 21.8101 201.125 21.0451 201.125C20.6051 201.125 20.1821 201.209 19.8711 201.335L23.7911 197.308C23.8071 197.318 23.8211 197.333 23.8361 197.348L23.8371 197.347Z" fill="white"/>
  <path d="M140 79.9998H146.667V99.9998H140V79.9998Z" fill="white"/>
  <path opacity="0.9" d="M146.667 79.9998H160V86.6668H146.667V79.9998Z" fill="white"/>
  <path opacity="0.7" d="M146.667 86.6667H153.334V93.3337H146.667V86.6667Z" fill="white"/>
  <path d="M98.3549 24.545H95.4949V21.415H84.5049V24.535H81.6349C81.1349 24.535 80.7349 24.935 80.7349 25.435V33.095H84.5049V34.405L88.6849 38.585H95.4949V33.145H99.2649V25.445C99.2549 24.945 98.8549 24.545 98.3549 24.545ZM85.5649 22.485H94.4249V24.545H85.5649V22.485ZM96.5449 31.665H95.4949V29.565H94.4349V37.525H90.0849C88.5049 37.525 89.2649 33.785 89.2649 33.785C89.2649 33.785 85.6149 34.675 85.5749 33.005V29.575H84.5149V31.635H83.4549V28.055H96.5449V31.665ZM97.2949 26.755C96.8949 26.755 96.5749 26.435 96.5749 26.035C96.5749 25.635 96.8949 25.315 97.2949 25.315C97.6949 25.315 98.0149 25.635 98.0149 26.035C98.0149 26.435 97.6949 26.755 97.2949 26.755ZM93.1749 29.715H87.0749V30.775H93.1749V29.715ZM87.0649 32.865H93.1649V31.805H87.0649V32.865Z" fill="white"/>
  <path fill-rule="evenodd" clip-rule="evenodd" d="M40.9995 149.998C41.0043 150.455 40.8816 150.903 40.6452 151.294C40.4088 151.684 40.0681 152.001 39.6615 152.208C39.7595 152.588 39.8085 152.985 39.8085 153.398C39.8085 154.681 39.3715 155.868 38.5005 156.961C37.6285 158.053 36.4405 158.916 34.9335 159.549C33.4275 160.183 31.7905 160.499 30.0235 160.499C28.2555 160.499 26.6205 160.183 25.1185 159.549C23.6165 158.917 22.4285 158.054 21.5585 156.962C20.6865 155.87 20.2505 154.682 20.2505 153.4C20.2505 153.012 20.2955 152.623 20.3855 152.234C19.9716 152.03 19.6231 151.714 19.3795 151.322C19.1265 150.922 18.9995 150.48 18.9995 150C18.9995 149.322 19.2365 148.74 19.7115 148.256C19.934 148.022 20.2026 147.837 20.5004 147.712C20.7981 147.587 21.1186 147.525 21.4415 147.53C22.1385 147.53 22.7315 147.79 23.2215 148.312C25.0065 147.054 27.1145 146.384 29.5455 146.302L30.9695 139.835C30.9943 139.728 31.0604 139.634 31.1535 139.575C31.1994 139.543 31.2517 139.521 31.3068 139.51C31.3619 139.499 31.4187 139.5 31.4735 139.512L36.0035 140.518C36.1505 140.212 36.3715 139.965 36.6655 139.778C36.9553 139.594 37.2921 139.497 37.6355 139.5C38.1435 139.5 38.5755 139.68 38.9375 140.04C39.2975 140.4 39.4775 140.836 39.4775 141.35C39.4775 141.862 39.2975 142.3 38.9375 142.665C38.5775 143.029 38.1435 143.211 37.6355 143.211C37.1285 143.211 36.6955 143.031 36.3405 142.671C36.1677 142.501 36.0314 142.297 35.9398 142.072C35.8482 141.847 35.8032 141.606 35.8075 141.363L31.7075 140.443L30.4305 146.303C32.8855 146.377 35.0105 147.039 36.8005 148.288C37.0225 148.044 37.2941 147.85 37.5972 147.72C37.9002 147.589 38.2276 147.525 38.5575 147.531C39.2375 147.531 39.8135 147.773 40.2875 148.257C40.7635 148.741 41.0005 149.323 41.0005 150.001L40.9995 149.998ZM24.1315 152.468C24.1315 152.981 24.3095 153.418 24.6655 153.783C25.0215 154.148 25.4525 154.33 25.9605 154.33C26.4685 154.33 26.9025 154.148 27.2625 153.783C27.6225 153.419 27.8025 152.981 27.8025 152.468C27.8025 151.955 27.6225 151.518 27.2625 151.158C26.9025 150.798 26.4685 150.618 25.9625 150.618C25.4625 150.618 25.0325 150.801 24.6725 151.165C24.4989 151.335 24.3616 151.537 24.2688 151.761C24.1759 151.985 24.1296 152.226 24.1325 152.468H24.1315ZM34.0755 156.874C34.1655 156.784 34.2105 156.674 34.2105 156.551C34.2113 156.434 34.1654 156.321 34.0829 156.237C34.0005 156.153 33.8881 156.105 33.7705 156.104C33.6465 156.104 33.5405 156.146 33.4505 156.228C33.1145 156.576 32.6205 156.833 31.9645 156.998C31.3227 157.162 30.6629 157.245 30.0005 157.246C29.3381 157.245 28.6784 157.162 28.0365 156.998C27.3815 156.833 26.8865 156.576 26.5505 156.228C26.4641 156.147 26.3493 156.102 26.2305 156.104C26.1737 156.103 26.1173 156.113 26.0646 156.134C26.012 156.156 25.9643 156.188 25.9245 156.228C25.8804 156.268 25.8454 156.317 25.8221 156.372C25.7988 156.427 25.7877 156.486 25.7895 156.545C25.7882 156.607 25.7994 156.667 25.8225 156.724C25.8455 156.781 25.8799 156.832 25.9235 156.875C26.2755 157.23 26.7605 157.511 27.3785 157.718C27.9955 157.925 28.4965 158.048 28.8815 158.084C29.2527 158.121 29.6255 158.14 29.9985 158.14C30.3585 158.14 30.7315 158.12 31.1155 158.084C31.5005 158.047 32.0015 157.924 32.6195 157.718C33.2395 157.511 33.7235 157.23 34.0755 156.874ZM34.0385 154.33C34.5455 154.33 34.9765 154.148 35.3325 153.783C35.6885 153.419 35.8665 152.981 35.8665 152.468C35.8665 151.963 35.6865 151.528 35.3265 151.165C35.1607 150.99 34.9605 150.852 34.7385 150.758C34.5165 150.664 34.2775 150.617 34.0365 150.619C33.5305 150.619 33.0965 150.799 32.7365 151.159C32.3765 151.519 32.1965 151.956 32.1965 152.469C32.1965 152.982 32.3765 153.419 32.7365 153.784C33.0965 154.149 33.5305 154.331 34.0365 154.331L34.0385 154.33Z" fill="white"/>
  <path fill-rule="evenodd" clip-rule="evenodd" d="M155 216H159.01C160.11 216 161 215.107 161 214.006V201.994C161 200.894 160.11 200 159.01 200H140.99C139.89 200 139 200.893 139 201.994V214.006C139 215.106 139.89 216 140.99 216H150.556L153.67 219.504C154.4 220.324 155 220.106 155 219.004V216ZM144.515 205.165C144.875 205.275 145.197 205.425 145.477 205.611L145.064 206.491C144.778 206.313 144.471 206.173 144.149 206.075C143.884 205.991 143.607 205.945 143.329 205.939C143.029 205.939 142.793 205.993 142.622 206.099C142.542 206.145 142.475 206.213 142.43 206.294C142.385 206.375 142.363 206.466 142.366 206.559C142.366 206.732 142.421 206.879 142.533 206.996C142.643 207.116 142.785 207.21 142.953 207.281C143.123 207.353 143.361 207.433 143.667 207.521C144.067 207.641 144.392 207.757 144.644 207.871C144.896 207.988 145.111 208.161 145.288 208.389C145.465 208.617 145.554 208.915 145.554 209.281C145.554 209.625 145.459 209.928 145.269 210.188C145.079 210.448 144.816 210.648 144.479 210.788C144.141 210.928 143.755 211 143.319 211C142.869 211 142.431 210.914 142.009 210.745C141.601 210.585 141.225 210.353 140.899 210.061L141.333 209.198C141.633 209.474 141.961 209.688 142.318 209.838C142.674 209.988 143.013 210.062 143.335 210.062C143.685 210.062 143.957 209.999 144.151 209.872C144.242 209.818 144.317 209.74 144.368 209.648C144.42 209.555 144.446 209.45 144.443 209.344C144.446 209.261 144.432 209.179 144.402 209.101C144.372 209.024 144.327 208.954 144.269 208.894C144.147 208.771 144.001 208.676 143.839 208.614C143.604 208.526 143.367 208.447 143.126 208.377C142.793 208.284 142.466 208.168 142.149 208.03C141.901 207.916 141.683 207.745 141.512 207.532C141.335 207.312 141.246 207.022 141.246 206.655C141.246 206.321 141.336 206.03 141.516 205.781C141.696 205.531 141.95 205.338 142.276 205.203C142.6 205.068 142.976 205.001 143.403 205.001C143.783 205.001 144.153 205.056 144.513 205.166L144.515 205.165ZM152.247 210.965L152.237 206.541L150.367 210.347H149.714L147.847 206.542V210.968H146.905V205.04H148.091L150.046 208.978L151.991 205.041H153.169V210.967H152.249L152.247 210.965ZM157.975 205.165C158.335 205.275 158.655 205.425 158.937 205.611L158.524 206.491C158.238 206.313 157.931 206.173 157.609 206.075C157.344 205.991 157.067 205.945 156.789 205.939C156.489 205.939 156.252 205.993 156.082 206.099C156.001 206.145 155.935 206.212 155.89 206.293C155.845 206.374 155.822 206.466 155.825 206.559C155.825 206.732 155.881 206.879 155.993 206.996C156.103 207.116 156.245 207.21 156.413 207.281C156.583 207.353 156.821 207.433 157.127 207.521C157.527 207.641 157.852 207.757 158.104 207.871C158.356 207.988 158.571 208.161 158.748 208.389C158.925 208.617 159.014 208.915 159.014 209.281C159.014 209.625 158.919 209.928 158.729 210.188C158.539 210.448 158.276 210.648 157.939 210.788C157.601 210.928 157.215 211 156.779 211C156.329 211 155.891 210.914 155.469 210.745C155.061 210.585 154.685 210.353 154.359 210.061L154.793 209.198C155.093 209.474 155.421 209.688 155.778 209.838C156.134 209.988 156.473 210.062 156.795 210.062C157.145 210.062 157.417 209.999 157.611 209.872C157.702 209.818 157.776 209.74 157.827 209.647C157.878 209.554 157.904 209.45 157.901 209.344C157.904 209.261 157.89 209.179 157.861 209.102C157.831 209.024 157.786 208.954 157.729 208.894C157.607 208.771 157.461 208.676 157.299 208.614C157.064 208.526 156.827 208.447 156.586 208.377C156.253 208.284 155.926 208.168 155.609 208.03C155.361 207.916 155.143 207.745 154.972 207.532C154.795 207.312 154.706 207.022 154.706 206.655C154.706 206.321 154.796 206.03 154.976 205.781C155.156 205.531 155.41 205.338 155.736 205.203C156.06 205.068 156.436 205.001 156.862 205.001C157.242 205.001 157.612 205.056 157.974 205.166L157.975 205.165Z" fill="white"/>
  <path fill-rule="evenodd" clip-rule="evenodd" d="M153.108 31.1169C152.736 31.1169 152.02 32.5069 151.59 32.5069C151.478 32.5022 151.369 32.4676 151.275 32.4069C150.473 32.0049 149.771 31.5899 149.112 30.9599C148.567 30.4439 147.966 29.6699 147.652 28.9969C147.609 28.9331 147.583 28.8588 147.579 28.7819C147.579 28.4519 148.569 27.8369 148.569 27.2919C148.569 27.1489 147.839 25.2019 147.737 24.9569C147.594 24.5849 147.523 24.4699 147.137 24.4699C146.95 24.4699 146.777 24.4269 146.607 24.4269C146.305 24.4269 146.077 24.5419 145.861 24.7419C145.173 25.3869 144.829 26.0599 144.801 27.0059V27.1199C144.786 28.1099 145.273 29.0969 145.818 29.8999C147.048 31.7199 148.324 33.3099 150.372 34.2399C150.988 34.5269 152.407 35.1279 153.094 35.1279C153.911 35.1279 155.244 34.6129 155.572 33.8099C155.702 33.4799 155.816 33.0799 155.816 32.7219C155.816 32.6639 155.816 32.5779 155.786 32.5069C155.686 32.3349 153.352 31.1169 153.108 31.1169ZM150.2 38.7099C148.453 38.7099 146.72 38.1799 145.258 37.2199L141.791 38.3219L142.923 34.9849C141.806 33.4538 141.204 31.6079 141.203 29.7129C141.203 24.7579 145.243 20.7179 150.2 20.7179C155.157 20.7179 159.198 24.7569 159.198 29.7119C159.198 34.6699 155.158 38.7099 150.2 38.7099ZM150.2 18.9119C144.24 18.9119 139.4 23.7539 139.4 29.7119C139.4 31.6759 139.93 33.6099 140.946 35.2859L138.998 41.0879L144.972 39.1679C146.617 40.076 148.47 40.5395 150.349 40.5127C152.228 40.486 154.067 39.9698 155.685 39.0152C157.304 38.0607 158.645 36.7006 159.578 35.0693C160.51 33.438 161.001 31.5918 161.002 29.7129C161.002 23.7549 156.16 18.9119 150.2 18.9119Z" fill="white"/>
  <path fill-rule="evenodd" clip-rule="evenodd" d="M36.5 79.1598C36.094 79.1058 34.694 78.9998 33.07 78.9998C29.67 78.9998 27.337 80.8248 27.337 84.1698V87.0518H23.5V90.9648H27.337V101H31.941V90.9648H35.764L36.351 87.0518H31.941V84.5518C31.941 83.4288 32.288 82.6488 34.139 82.6488H36.5V79.1598Z" fill="white"/>
  <g clip-path="url(#clip0_15656_159)">
    <path d="M91.8049 208.311L99.8147 199H97.9166L90.9617 207.084L85.4069 199H79L87.4 211.225L79 220.989H80.8982L88.2427 212.451L94.109 220.989H100.516L91.8044 208.311H91.8049ZM89.2051 211.333L88.354 210.115L81.5821 200.429H84.4976L89.9626 208.246L90.8137 209.464L97.9175 219.625H95.002L89.2051 211.333V211.333Z" fill="white"/>
  </g>
  <path d="M41 36.7571C41 37.9971 40.012 39.0001 38.81 39.0001H21.19C19.98 39.0001 19 37.9941 19 36.7571V27.6701C19 27.1141 19.39 26.8971 19.855 27.1741L28.635 32.4121C29.417 32.8791 30.585 32.8791 31.365 32.4121L40.145 27.1741C40.617 26.8941 41 27.1111 41 27.6691V36.7571Z" fill="white"/>
  <path d="M41 23.243C41 22.006 40.02 21 38.81 21H21.19C19.988 21 19 22.004 19 23.243V23.708C19 24.262 19.385 24.94 19.857 25.222L29.467 30.955C29.734 31.115 30.267 31.115 30.534 30.955L40.144 25.222C40.617 24.939 41 24.262 41 23.708V23.243Z" fill="white"/>
  <path d="M220.614 27.5599C220.585 27.4764 220.531 27.4039 220.459 27.352C220.388 27.3002 220.302 27.2715 220.214 27.2699H212.704L210.384 20.1299C210.324 19.9599 210.164 19.8499 209.994 19.8499C209.824 19.8499 209.654 19.9599 209.604 20.1299L207.264 27.2699H199.774C199.594 27.2699 199.434 27.3899 199.384 27.5599C199.324 27.7299 199.394 27.9099 199.534 28.0199L205.594 32.4399L203.254 39.6099C203.194 39.7799 203.264 39.9599 203.404 40.0699C203.544 40.1799 203.744 40.1699 203.894 40.0699L209.994 35.6399L216.084 40.0699C216.154 40.1199 216.244 40.1499 216.324 40.1499C216.404 40.1499 216.494 40.1199 216.564 40.0699C216.714 39.9699 216.764 39.7799 216.714 39.6099L214.374 32.4299L220.454 28.0099C220.529 27.9658 220.587 27.8965 220.616 27.8141C220.645 27.7318 220.645 27.6417 220.614 27.5599Z" fill="white"/>
  <path fill-rule="evenodd" clip-rule="evenodd" d="M95.0243 96.2728C94.6323 96.4588 93.8843 96.6208 93.3293 96.6348C91.6473 96.6798 91.3213 95.4548 91.3073 94.5648V88.0268H95.5253V84.8468H91.3243V79.4998H88.2483C88.1983 79.4998 88.1103 79.5438 88.0983 79.6568C87.9183 81.2928 87.1513 84.1668 83.9653 85.3168V88.0268H86.0893V94.8888C86.0893 97.2388 87.8223 100.577 92.3973 100.499C93.9413 100.471 95.6553 99.8248 96.0343 99.2688L95.0243 96.2728Z" fill="white"/>
  <path fill-rule="evenodd" clip-rule="evenodd" d="M200.501 146.753C200.501 148.563 201.273 151.203 203.396 151.798C203.47 151.812 203.574 151.838 203.648 151.838C204.138 151.838 204.42 150.568 204.42 150.208C204.42 149.78 203.246 148.868 203.246 147.085C203.246 143.38 206.274 140.755 210.193 140.755C213.563 140.755 216.056 142.537 216.056 145.813C216.056 148.259 215.002 152.848 211.588 152.848C210.356 152.848 209.302 152.018 209.302 150.83C209.302 149.088 210.609 147.4 210.609 145.605C210.609 144.513 209.939 143.628 208.693 143.628C207.001 143.628 205.961 145.398 205.961 146.793C205.961 147.567 206.065 148.423 206.437 149.129C205.754 151.865 204.357 155.943 204.357 158.762C204.357 159.632 204.492 160.49 204.581 161.362L204.715 161.499L204.922 161.429C207.416 158.251 207.327 157.629 208.455 153.469C209.065 154.546 210.637 155.127 211.885 155.127C217.139 155.127 219.499 150.357 219.499 146.06C219.501 141.488 215.256 138.501 210.595 138.501C205.518 138.501 200.501 141.651 200.501 146.753Z" fill="white"/>
  <path fill-rule="evenodd" clip-rule="evenodd" d="M212 208V202H208V208H202V212H208V218H212V212H218V208H212Z" fill="white"/>
  <defs>
    <clipPath id="clip0_15656_159">
      <rect width="21.5159" height="22" fill="white" transform="translate(79 199)"/>
    </clipPath>
  </defs>
</svg>
